<svg width="74" height="74" viewBox="0 0 74 74" fill="none" xmlns="http://www.w3.org/2000/svg">
<rect width="74" height="74" rx="37" fill="#3CB55F"/>
<g clip-path="url(#clip0_488_2605)">
<path d="M40.9994 29.7999C40.9994 29.7111 40.9994 28.1135 40.9994 28.1999C40.9994 27.1415 39.3994 27.1407 39.3994 28.1999C39.3994 28.2887 39.3994 29.8863 39.3994 29.7999C39.3994 30.8583 40.9994 30.8591 40.9994 29.7999Z" fill="#F5FAF6"/>
<path d="M39.3994 48.9999C39.3994 49.0887 39.3994 50.6863 39.3994 50.5999C39.3994 51.6583 40.9994 51.6591 40.9994 50.5999C40.9994 50.5111 40.9994 48.9135 40.9994 48.9999C40.9994 47.9415 39.3994 47.9407 39.3994 48.9999Z" fill="#F5FAF6"/>
<path d="M35.692 29.9937L35.292 29.3009C34.7624 28.3841 33.3776 29.1841 33.9064 30.1009L34.3064 30.7937C34.832 31.7025 36.2256 30.9185 35.692 29.9937Z" fill="#F5FAF6"/>
<path d="M31.5931 33.5073L30.9003 33.1072C29.9803 32.5784 29.1859 33.9641 30.1003 34.4929L30.7931 34.8929C31.7059 35.4185 32.5083 34.0361 31.5931 33.5073Z" fill="#F5FAF6"/>
<path d="M30.7927 43.9072L30.0999 44.3072C29.1863 44.8353 29.9847 46.2201 30.8999 45.6929L31.5927 45.2929C32.5111 44.7617 31.7055 43.3768 30.7927 43.9072Z" fill="#F5FAF6"/>
<path d="M50.2992 34.4928C51.2184 33.9624 50.4112 32.576 49.4992 33.108L48.8072 33.508C47.892 34.0368 48.6944 35.4232 49.6072 34.8928L50.2992 34.4928Z" fill="#F5FAF6"/>
<path d="M34.3067 48.0064L33.9067 48.6992C33.3787 49.6152 34.7683 50.4064 35.2923 49.4992L35.6923 48.8064C36.2219 47.8888 34.8355 47.0912 34.3067 48.0064Z" fill="#F5FAF6"/>
<path d="M46.092 30.7935L46.492 30.1007C47.0216 29.1831 45.6344 28.3847 45.1064 29.3007L44.7064 29.9935C44.1736 30.9159 45.5648 31.7055 46.092 30.7935Z" fill="#F5FAF6"/>
<path d="M30.5999 40.2001C31.6575 40.2001 31.6591 38.6001 30.5999 38.6001C30.5111 38.6001 28.9135 38.6001 28.9999 38.6001C27.9423 38.6001 27.9407 40.2001 28.9999 40.2001C29.0887 40.2001 30.6863 40.2001 30.5999 40.2001Z" fill="#F5FAF6"/>
<path d="M49.7997 40.2001C49.8885 40.2001 51.4861 40.2001 51.3997 40.2001C52.4589 40.2001 52.4573 38.6001 51.3997 38.6001C51.3109 38.6001 49.7133 38.6001 49.7997 38.6001C48.7405 38.6001 48.7421 40.2001 49.7997 40.2001Z" fill="#F5FAF6"/>
<path d="M52.1995 42.6001C47.3474 42.6001 43.3994 46.5481 43.3994 51.4002C43.3994 56.2522 47.3474 60.2002 52.1995 60.2002C57.0515 60.2002 60.9995 56.2522 60.9995 51.4002C60.9995 46.5481 57.0515 42.6001 52.1995 42.6001ZM52.1995 58.6002C48.229 58.6002 44.9994 55.3698 44.9994 51.4002C44.9994 47.4305 48.229 44.2001 52.1995 44.2001C56.1699 44.2001 59.3995 47.4305 59.3995 51.4002C59.3995 55.3698 56.1699 58.6002 52.1995 58.6002Z" fill="#F5FAF6"/>
<path d="M55.5606 47.72L51.3134 53.3825L48.7654 50.8344C48.0166 50.0856 46.8862 51.2176 47.6342 51.9656L50.8342 55.1657C51.1766 55.5081 51.7462 55.4713 52.0398 55.0801L56.8399 48.68C57.4743 47.8368 56.1982 46.8712 55.5606 47.72Z" fill="#F5FAF6"/>
<path d="M43.7146 35.5543L40.9994 38.2687V32.1999C40.9994 31.1415 39.3994 31.1407 39.3994 32.1999V40.1999C39.3994 40.5231 39.5938 40.8151 39.893 40.9391C40.1938 41.0631 40.537 40.9935 40.765 40.7655L44.8458 36.6855C45.5939 35.9367 44.4626 34.8055 43.7146 35.5543Z" fill="#F5FAF6"/>
<path d="M41.2773 52.9586C40.9229 52.9858 40.5629 53.0002 40.2005 53.0002C36.222 53.0002 32.4524 51.2625 29.8572 48.2337C29.1692 47.4313 27.9532 48.4697 28.642 49.2745C31.5412 52.6585 35.754 54.6002 40.2005 54.6002C40.6053 54.6002 41.0069 54.5842 41.4021 54.5538C42.4573 54.4714 42.3317 52.8794 41.2773 52.9586Z" fill="#F5FAF6"/>
<path d="M21.7997 33.7999H27.2957C27.5989 33.7999 27.8773 33.6279 28.0125 33.3559C30.3309 28.6951 35.0005 25.7999 40.1998 25.7999C47.699 25.7999 53.7999 31.9007 53.7999 39.4C53.7999 39.736 53.7879 40.0688 53.7647 40.3984C53.6879 41.46 55.2855 41.576 55.3599 40.5136C55.3863 40.1456 55.3999 39.7744 55.3999 39.4C55.3999 35.4975 53.9087 31.9447 51.4822 29.2503L52.7359 28.0007L54.3007 29.5655C54.6135 29.8783 55.1199 29.8775 55.4319 29.5655L57.5655 27.4319C57.8783 27.1191 57.8783 26.6135 57.5655 26.3007L53.2991 22.0335C52.9863 21.7207 52.4799 21.7215 52.1679 22.0335L50.0342 24.1671C49.7214 24.4799 49.7214 24.9855 50.0342 25.2983L51.6046 26.8695L50.351 28.1191C47.843 25.8599 44.587 24.4287 40.9998 24.2399V23.3279C43.2662 22.9455 44.9998 20.9734 44.9998 18.5998C44.9998 15.9526 42.847 13.7998 40.1998 13.7998C37.5526 13.7998 35.3997 15.9526 35.3997 18.5998C35.3997 20.9734 37.1334 22.9447 39.3998 23.3279V24.2271C35.855 24.4095 32.5709 25.7943 30.0237 28.0951L28.7941 26.8695L30.3645 25.2983C30.6773 24.9855 30.6773 24.4799 30.3645 24.1671L28.2309 22.0335C27.9309 21.7335 27.3997 21.7335 27.0997 22.0335L22.8333 26.3007C22.5205 26.6135 22.5205 27.1191 22.8333 27.4319L24.9669 29.5655C25.2789 29.8775 25.7853 29.8783 26.0981 29.5655L27.6629 28.0007L28.8989 29.2327C28.1005 30.1239 27.3933 31.1135 26.8085 32.1999H21.7997C20.7421 32.1999 20.7405 33.7999 21.7997 33.7999ZM52.7335 23.7311L55.8687 26.8671L54.8663 27.8695L51.7311 24.7335L52.7335 23.7311ZM36.9998 18.5998C36.9998 16.835 38.435 15.3998 40.1998 15.3998C41.9646 15.3998 43.3998 16.835 43.3998 18.5998C43.3998 20.0862 42.3758 21.3287 40.9998 21.6863V20.1998H41.7998C42.859 20.1998 42.8574 18.5998 41.7998 18.5998H38.5998C37.5406 18.5998 37.5422 20.1998 38.5998 20.1998H39.3998V21.6863C38.023 21.3287 36.9998 20.0862 36.9998 18.5998ZM25.5333 27.8687L24.5309 26.8663L27.6661 23.7303L28.6685 24.7327L25.5333 27.8687Z" fill="#F5FAF6"/>
<path d="M21.7997 40.2001H25.7997C26.2413 40.2001 26.5997 39.8417 26.5997 39.4001C26.5997 38.2961 26.7325 37.1977 26.9941 36.1345C27.2469 35.1041 25.6933 34.7281 25.4405 35.7521C25.2117 36.6825 25.0709 37.6377 25.0205 38.6001H21.7997C20.7421 38.6001 20.7405 40.2001 21.7997 40.2001Z" fill="#F5FAF6"/>
<path d="M26.8725 42.1272C26.7837 41.6944 26.3637 41.4136 25.9285 41.5032C25.4957 41.5912 25.2165 42.0136 25.3045 42.4472C25.4821 43.3184 25.7365 44.1737 26.0645 45.0001H21.7997C20.7421 45.0001 20.7405 46.6001 21.7997 46.6001H27.2957C27.8877 46.6001 28.2765 45.9761 28.0125 45.4441C27.4901 44.3921 27.1069 43.276 26.8725 42.1272Z" fill="#F5FAF6"/>
<path d="M18.6239 32.2H17.7743C16.7167 32.2 16.7151 33.8 17.7743 33.8H18.6247C19.6823 33.8 19.6831 32.2 18.6239 32.2Z" fill="#F5FAF6"/>
<path d="M18.5997 38.6001H17.7997C16.7421 38.6001 16.7405 40.2001 17.7997 40.2001H18.5997C19.6573 40.2001 19.6589 38.6001 18.5997 38.6001Z" fill="#F5FAF6"/>
<path d="M18.5997 45H17.7997C16.7421 45 16.7405 46.6 17.7997 46.6H18.5997C19.6573 46.6 19.6589 45 18.5997 45Z" fill="#F5FAF6"/>
<path d="M14.5997 38.6001H13.7997C12.7421 38.6001 12.7405 40.2001 13.7997 40.2001H14.5997C15.6573 40.2001 15.6589 38.6001 14.5997 38.6001Z" fill="#F5FAF6"/>
</g>
<defs>
<clipPath id="clip0_488_2605">
<rect width="48" height="48" fill="white" transform="translate(13 13)"/>
</clipPath>
</defs>
</svg>
