<svg width="74" height="74" viewBox="0 0 74 74" fill="none" xmlns="http://www.w3.org/2000/svg">
<rect width="74" height="74" rx="37" fill="#3CB55F"/>
<path d="M42.25 44.5H31.75C31.1533 44.5 30.581 44.263 30.159 43.841C29.7371 43.419 29.5 42.8467 29.5 42.25V27.25C29.5 26.6533 29.7371 26.081 30.159 25.659C30.581 25.2371 31.1533 25 31.75 25H37.129C37.4246 24.9993 37.7173 25.0572 37.9904 25.1704C38.2634 25.2836 38.5113 25.4497 38.7197 25.6593L43.8407 30.7803C44.0503 30.9887 44.2164 31.2366 44.3296 31.5096C44.4428 31.7827 44.5007 32.0754 44.5 32.371V42.25C44.5 42.8467 44.2629 43.419 43.841 43.841C43.419 44.263 42.8467 44.5 42.25 44.5ZM31.75 26.5C31.5511 26.5 31.3603 26.579 31.2197 26.7197C31.079 26.8603 31 27.0511 31 27.25V42.25C31 42.4489 31.079 42.6397 31.2197 42.7803C31.3603 42.921 31.5511 43 31.75 43H42.25C42.4489 43 42.6397 42.921 42.7803 42.7803C42.921 42.6397 43 42.4489 43 42.25V32.371C42.9994 32.1722 42.9204 31.9817 42.7803 31.8408L37.6593 26.7198C37.5183 26.5796 37.3278 26.5006 37.129 26.5H31.75Z" fill="#F5FAF6"/>
<path d="M43 31.7498H40C39.4033 31.7498 38.831 31.5128 38.409 31.0908C37.9871 30.6689 37.75 30.0966 37.75 29.4998V26.4998C37.75 26.3515 37.794 26.2066 37.8764 26.0832C37.9589 25.9599 38.076 25.8638 38.213 25.8071C38.35 25.7503 38.5008 25.7355 38.6463 25.7644C38.7917 25.7933 38.9254 25.8647 39.0303 25.9696L43.5303 30.4696C43.6351 30.5745 43.7065 30.7081 43.7354 30.8536C43.7644 30.999 43.7495 31.1498 43.6928 31.2868C43.636 31.4239 43.5399 31.541 43.4166 31.6234C43.2933 31.7058 43.1483 31.7498 43 31.7498ZM39.25 28.3103V29.4998C39.25 29.6988 39.329 29.8895 39.4697 30.0302C39.6103 30.1708 39.8011 30.2498 40 30.2498H41.1895L39.25 28.3103Z" fill="#F5FAF6"/>
<path d="M40 34.75H34C33.8011 34.75 33.6103 34.671 33.4697 34.5303C33.329 34.3897 33.25 34.1989 33.25 34C33.25 33.8011 33.329 33.6103 33.4697 33.4697C33.6103 33.329 33.8011 33.25 34 33.25H40C40.1989 33.25 40.3897 33.329 40.5303 33.4697C40.671 33.6103 40.75 33.8011 40.75 34C40.75 34.1989 40.671 34.3897 40.5303 34.5303C40.3897 34.671 40.1989 34.75 40 34.75Z" fill="#F5FAF6"/>
<path d="M40 37.75H34C33.8011 37.75 33.6103 37.671 33.4697 37.5303C33.329 37.3897 33.25 37.1989 33.25 37C33.25 36.8011 33.329 36.6103 33.4697 36.4697C33.6103 36.329 33.8011 36.25 34 36.25H40C40.1989 36.25 40.3897 36.329 40.5303 36.4697C40.671 36.6103 40.75 36.8011 40.75 37C40.75 37.1989 40.671 37.3897 40.5303 37.5303C40.3897 37.671 40.1989 37.75 40 37.75Z" fill="#F5FAF6"/>
<path d="M40 40.75H34C33.8011 40.75 33.6103 40.671 33.4697 40.5303C33.329 40.3897 33.25 40.1989 33.25 40C33.25 39.8011 33.329 39.6103 33.4697 39.4697C33.6103 39.329 33.8011 39.25 34 39.25H40C40.1989 39.25 40.3897 39.329 40.5303 39.4697C40.671 39.6103 40.75 39.8011 40.75 40C40.75 40.1989 40.671 40.3897 40.5303 40.5303C40.3897 40.671 40.1989 40.75 40 40.75Z" fill="#F5FAF6"/>
<path d="M48.25 60.25H25.75C24.9544 60.25 24.1913 59.9339 23.6287 59.3713C23.0661 58.8087 22.75 58.0457 22.75 57.25V16.75C22.75 15.9544 23.0661 15.1913 23.6287 14.6287C24.1913 14.0661 24.9544 13.75 25.75 13.75H48.25C49.0456 13.75 49.8087 14.0661 50.3713 14.6287C50.9339 15.1913 51.25 15.9544 51.25 16.75V57.25C51.25 58.0457 50.9339 58.8087 50.3713 59.3713C49.8087 59.9339 49.0456 60.25 48.25 60.25ZM25.75 15.25C25.3522 15.25 24.9706 15.408 24.6893 15.6893C24.408 15.9706 24.25 16.3522 24.25 16.75V57.25C24.25 57.6478 24.408 58.0294 24.6893 58.3107C24.9706 58.592 25.3522 58.75 25.75 58.75H48.25C48.6478 58.75 49.0294 58.592 49.3107 58.3107C49.592 58.0294 49.75 57.6478 49.75 57.25V16.75C49.75 16.3522 49.592 15.9706 49.3107 15.6893C49.0294 15.408 48.6478 15.25 48.25 15.25H25.75Z" fill="#F5FAF6"/>
<path d="M48.25 51.25H25.75C25.5511 51.25 25.3603 51.171 25.2197 51.0303C25.079 50.8897 25 50.6989 25 50.5V19C25 18.8011 25.079 18.6103 25.2197 18.4697C25.3603 18.329 25.5511 18.25 25.75 18.25H48.25C48.4489 18.25 48.6397 18.329 48.7803 18.4697C48.921 18.6103 49 18.8011 49 19V50.5C49 50.6989 48.921 50.8897 48.7803 51.0303C48.6397 51.171 48.4489 51.25 48.25 51.25ZM26.5 49.75H47.5V19.75H26.5V49.75Z" fill="#F5FAF6"/>
<path d="M40 17.5H34C33.8011 17.5 33.6103 17.421 33.4697 17.2803C33.329 17.1397 33.25 16.9489 33.25 16.75C33.25 16.5511 33.329 16.3603 33.4697 16.2197C33.6103 16.079 33.8011 16 34 16H40C40.1989 16 40.3897 16.079 40.5303 16.2197C40.671 16.3603 40.75 16.5511 40.75 16.75C40.75 16.9489 40.671 17.1397 40.5303 17.2803C40.3897 17.421 40.1989 17.5 40 17.5Z" fill="#F5FAF6"/>
<path d="M37 58C36.4067 58 35.8266 57.8241 35.3333 57.4944C34.8399 57.1648 34.4554 56.6962 34.2284 56.1481C34.0013 55.5999 33.9419 54.9967 34.0576 54.4147C34.1734 53.8328 34.4591 53.2982 34.8787 52.8787C35.2982 52.4591 35.8328 52.1734 36.4147 52.0576C36.9967 51.9419 37.5999 52.0013 38.1481 52.2284C38.6962 52.4554 39.1648 52.8399 39.4944 53.3333C39.8241 53.8266 40 54.4067 40 55C40 55.7957 39.6839 56.5587 39.1213 57.1213C38.5587 57.6839 37.7957 58 37 58ZM37 53.5C36.7033 53.5 36.4133 53.588 36.1666 53.7528C35.92 53.9176 35.7277 54.1519 35.6142 54.426C35.5007 54.7001 35.4709 55.0017 35.5288 55.2926C35.5867 55.5836 35.7296 55.8509 35.9393 56.0607C36.1491 56.2704 36.4164 56.4133 36.7074 56.4712C36.9983 56.5291 37.2999 56.4994 37.574 56.3858C37.8481 56.2723 38.0824 56.08 38.2472 55.8334C38.412 55.5867 38.5 55.2967 38.5 55C38.5 54.6022 38.342 54.2206 38.0607 53.9393C37.7794 53.658 37.3978 53.5 37 53.5Z" fill="#F5FAF6"/>
</svg>
