<svg width="74" height="74" viewBox="0 0 74 74" fill="none" xmlns="http://www.w3.org/2000/svg">
<rect width="74" height="74" rx="37" fill="#3CB55F"/>
<g clip-path="url(#clip0_488_2569)">
<path d="M53.1472 31.4C53.3121 31.8663 53.617 32.2703 54.0202 32.5567C54.4235 32.8431 54.9054 32.9979 55.4 33H58.6C59.2365 33 59.847 32.7471 60.2971 32.2971C60.7471 31.847 61 31.2365 61 30.6V15.4C61 14.7635 60.7471 14.153 60.2971 13.7029C59.847 13.2529 59.2365 13 58.6 13H55.4C54.9054 13.0021 54.4235 13.1569 54.0202 13.4433C53.617 13.7297 53.3121 14.1337 53.1472 14.6H36.5432C35.5103 14.5992 34.4972 14.8832 33.6152 15.4208L20.7 23.2904C20.1968 23.594 19.807 24.0541 19.5902 24.6003C19.3733 25.1465 19.3415 25.7487 19.4995 26.3147C19.6575 26.8807 19.9966 27.3794 20.465 27.7343C20.9334 28.0893 21.5051 28.2809 22.0928 28.28C22.82 28.28 23.1424 28.04 25.2256 27.3776C23.5049 29.4816 22.3807 32.0089 21.9702 34.6957C21.5597 37.3825 21.8781 40.1302 22.892 42.652C22.2139 42.5937 21.533 42.5763 20.8528 42.6C20.6879 42.1337 20.383 41.7297 19.9798 41.4433C19.5765 41.1569 19.0946 41.0021 18.6 41H15.4C14.7635 41 14.153 41.2529 13.7029 41.7029C13.2529 42.153 13 42.7635 13 43.4V58.6C13 59.2365 13.2529 59.847 13.7029 60.2971C14.153 60.7471 14.7635 61 15.4 61H18.6C19.0946 60.998 19.5765 60.8431 19.9798 60.5567C20.383 60.2703 20.6879 59.8663 20.8528 59.4H37.456C38.4889 59.4008 39.502 59.1168 40.384 58.5792L53.2992 50.7096C53.8667 50.3683 54.2883 49.8294 54.483 49.1964C54.6777 48.5634 54.6318 47.8808 54.3542 47.2795C54.0767 46.6782 53.5868 46.2005 52.9788 45.9381C52.3707 45.6757 51.6871 45.647 51.0592 45.8576L48.776 46.6208C50.4962 44.5167 51.6202 41.9895 52.0305 39.3029C52.4408 36.6163 52.1225 33.8688 51.1088 31.3472C51.7866 31.4054 52.4673 31.423 53.1472 31.4ZM55.4 14.6H58.6C58.8122 14.6 59.0157 14.6843 59.1657 14.8343C59.3157 14.9843 59.4 15.1878 59.4 15.4V30.6C59.4 30.8122 59.3157 31.0157 59.1657 31.1657C59.0157 31.3157 58.8122 31.4 58.6 31.4H55.4C55.1878 31.4 54.9843 31.3157 54.8343 31.1657C54.6843 31.0157 54.6 30.8122 54.6 30.6V15.4C54.6 15.1878 54.6843 14.9843 54.8343 14.8343C54.9843 14.6843 55.1878 14.6 55.4 14.6ZM22.4344 26.6248C22.1805 26.7078 21.905 26.6946 21.6601 26.5878C21.4153 26.481 21.2182 26.288 21.1064 26.0454C20.9945 25.8028 20.9757 25.5276 21.0534 25.2721C21.1311 25.0165 21.3 24.7984 21.528 24.6592L34.4488 16.7864C35.0796 16.4018 35.8044 16.1989 36.5432 16.2H53V29.8H51.9432C48.2536 29.8 47.4312 26.6 43.6072 26.6H39.7752C38.0456 26.6 36.2976 24.7448 37.3568 23.4H43.1272C44.7145 23.3815 46.2535 22.8519 47.516 21.8896C47.6925 21.7717 47.815 21.5886 47.8565 21.3804C47.898 21.1722 47.8551 20.9561 47.7372 20.7796C47.6193 20.6031 47.4362 20.4806 47.228 20.4391C47.0198 20.3976 46.8037 20.4405 46.6272 20.5584C45.6285 21.3453 44.3985 21.7816 43.1272 21.8H37.2632C37.004 21.8096 36.747 21.8504 36.4976 21.9216L22.4344 26.6248ZM18.6 59.4H15.4C15.1878 59.4 14.9843 59.3157 14.8343 59.1657C14.6843 59.0157 14.6 58.8122 14.6 58.6V43.4C14.6 43.1878 14.6843 42.9843 14.8343 42.8343C14.9843 42.6843 15.1878 42.6 15.4 42.6H18.6C18.8122 42.6 19.0157 42.6843 19.1657 42.8343C19.3157 42.9843 19.4 43.1878 19.4 43.4V58.6C19.4 58.8122 19.3157 59.0157 19.1657 59.1657C19.0157 59.3157 18.8122 59.4 18.6 59.4ZM51.5648 47.3752C51.8187 47.2922 52.0942 47.3054 52.3391 47.4122C52.5839 47.519 52.781 47.712 52.8928 47.9546C53.0047 48.1972 53.0235 48.4724 52.9458 48.7279C52.8681 48.9835 52.6992 49.2016 52.4712 49.3408L39.5512 57.2136C38.92 57.5981 38.195 57.801 37.456 57.8H21V44.2H22.056C25.7448 44.2 26.5664 47.4 30.392 47.4H34.224C35.9504 47.4 37.7016 49.2552 36.6424 50.6H30.872C29.2848 50.6181 27.7458 51.1481 26.484 52.1112C26.3132 52.2313 26.196 52.4134 26.1577 52.6187C26.1193 52.824 26.1627 53.0361 26.2787 53.2098C26.3946 53.3835 26.5739 53.505 26.7781 53.5483C26.9824 53.5916 27.1956 53.5533 27.372 53.4416C28.3707 52.6547 29.6007 52.2184 30.872 52.2H36.736C36.9951 52.1903 37.2522 52.1494 37.5016 52.0784L51.5648 47.3752ZM45.2648 47.7952L38.564 50.0352C38.7936 48.1152 36.8536 45.7952 34.224 45.7952H30.392C28.0952 45.7952 26.7784 43.932 24.876 43.1552C23.4317 40.3244 23.0268 37.0764 23.7321 33.9777C24.4374 30.8789 26.208 28.1261 28.7352 26.1992L35.4352 23.9592C35.2056 25.8792 37.1464 28.1992 39.7752 28.1992H43.6072C45.9752 28.1992 47.064 29.9992 49.1272 30.8392C50.5714 33.6703 50.9758 36.9186 50.2699 40.0174C49.564 43.1162 47.7927 45.8689 45.2648 47.7952Z" fill="#F5FAF6"/>
<path d="M34.2004 26.1295C34.1329 25.9284 33.9883 25.7623 33.7984 25.6678C33.6084 25.5733 33.3887 25.558 33.1876 25.6255C31.6212 26.1506 30.18 26.9936 28.9545 28.1015C27.7289 29.2095 26.7454 30.5586 26.0654 32.0643C25.3855 33.57 25.0237 35.1999 25.0029 36.8518C24.9821 38.5038 25.3026 40.1423 25.9444 41.6647C26.0273 41.86 26.1845 42.0144 26.3813 42.0938C26.578 42.1732 26.7983 42.1713 26.9936 42.0883C27.1889 42.0053 27.3432 41.8482 27.4227 41.6514C27.5021 41.4547 27.5001 41.2344 27.4172 41.0391C26.8616 39.7199 26.5843 38.3002 26.6027 36.8689C26.6211 35.4376 26.9347 34.0256 27.524 32.7211C28.1133 31.4166 28.9655 30.2478 30.0273 29.2878C31.0891 28.3279 32.3377 27.5975 33.6948 27.1423C33.7945 27.109 33.8867 27.0565 33.9661 26.9875C34.0455 26.9186 34.1105 26.8348 34.1575 26.7407C34.2045 26.6466 34.2324 26.5442 34.2398 26.4394C34.2471 26.3345 34.2337 26.2292 34.2004 26.1295Z" fill="#F5FAF6"/>
<path d="M46.5834 32.961C47.139 34.2802 47.4163 35.6999 47.3979 37.1312C47.3795 38.5625 47.0659 39.9746 46.4766 41.2791C45.8873 42.5835 45.0351 43.7523 43.9733 44.7123C42.9115 45.6722 41.663 46.4027 40.3058 46.8578C40.1043 46.9253 39.9378 47.0701 39.8429 47.2603C39.7481 47.4505 39.7328 47.6707 39.8002 47.8722C39.8677 48.0738 40.0125 48.2403 40.2027 48.3351C40.393 48.4299 40.6131 48.4453 40.8146 48.3778C42.3813 47.8526 43.8226 47.0094 45.0483 45.9011C46.2739 44.7929 47.2575 43.4435 47.9374 41.9374C48.6172 40.4313 48.9787 38.8011 48.9991 37.1488C49.0196 35.4966 48.6986 33.8579 48.0562 32.3354C47.9733 32.1401 47.8161 31.9858 47.6194 31.9063C47.4226 31.8269 47.2023 31.8289 47.007 31.9118C46.8117 31.9948 46.6574 32.1519 46.5779 32.3487C46.4985 32.5455 46.5005 32.7657 46.5834 32.961Z" fill="#F5FAF6"/>
<path d="M41.8002 39.8C41.8002 37.9864 40.097 36.5304 37.8002 36.252V32.2744C39.1602 32.504 40.2002 33.2888 40.2002 34.2C40.2002 34.4122 40.2845 34.6157 40.4345 34.7657C40.5845 34.9157 40.788 35 41.0002 35C41.2124 35 41.4159 34.9157 41.5659 34.7657C41.7159 34.6157 41.8002 34.4122 41.8002 34.2C41.8002 32.3864 40.097 30.9304 37.8002 30.652V29.8C37.8002 29.5878 37.7159 29.3843 37.5659 29.2343C37.4159 29.0843 37.2124 29 37.0002 29C36.788 29 36.5845 29.0843 36.4345 29.2343C36.2845 29.3843 36.2002 29.5878 36.2002 29.8V30.652C33.9034 30.9304 32.2002 32.3864 32.2002 34.2C32.2002 36.0136 33.9034 37.4696 36.2002 37.748V41.7256C34.8402 41.496 33.8002 40.7112 33.8002 39.8C33.8002 39.5878 33.7159 39.3843 33.5659 39.2343C33.4159 39.0843 33.2124 39 33.0002 39C32.788 39 32.5845 39.0843 32.4345 39.2343C32.2845 39.3843 32.2002 39.5878 32.2002 39.8C32.2002 41.6136 33.9034 43.0696 36.2002 43.348V44.2C36.2002 44.4122 36.2845 44.6157 36.4345 44.7657C36.5845 44.9157 36.788 45 37.0002 45C37.2124 45 37.4159 44.9157 37.5659 44.7657C37.7159 44.6157 37.8002 44.4122 37.8002 44.2V43.348C40.097 43.0696 41.8002 41.6136 41.8002 39.8ZM33.8002 34.2C33.8002 33.2888 34.8402 32.504 36.2002 32.2744V36.1256C34.8402 35.896 33.8002 35.1112 33.8002 34.2ZM37.8002 41.7256V37.8744C39.1602 38.104 40.2002 38.8888 40.2002 39.8C40.2002 40.7112 39.1602 41.496 37.8002 41.7256Z" fill="#F5FAF6"/>
</g>
<defs>
<clipPath id="clip0_488_2569">
<rect width="48" height="48" fill="white" transform="translate(13 13)"/>
</clipPath>
</defs>
</svg>
