<svg width="74" height="74" viewBox="0 0 74 74" fill="none" xmlns="http://www.w3.org/2000/svg">
<rect width="74" height="74" rx="37" fill="#3CB55F"/>
<g clip-path="url(#clip0_488_2583)">
<path d="M61 22.4367L55.9297 21.4146C56.1398 21.053 56.2526 20.6415 56.2532 20.2123C56.2542 19.5693 56.0048 18.9644 55.5508 18.5091C55.0968 18.0538 54.4928 17.8024 53.8497 17.8015C53.8483 17.8014 53.8472 17.8014 53.8459 17.8014C53.418 17.8014 53.0074 17.9129 52.6463 18.1213L51.6396 13.0479L45.5249 19.1441C42.3542 17.4714 38.7902 16.5888 35.1816 16.5888C30.8724 16.5888 26.6939 17.8259 23.0978 20.1662L23.8654 21.3457C27.2326 19.1544 31.1457 17.9961 35.1816 17.9961C38.4143 17.9961 41.6085 18.7517 44.478 20.1878L44.1261 20.5387L45.0897 25.3949C42.2346 23.2779 38.7415 22.1181 35.1816 22.1181C25.9995 22.1181 18.5293 29.5883 18.5293 38.7704C18.5293 45.3789 22.4481 51.3681 28.5127 54.0287L29.0779 52.74C23.5248 50.3039 19.9365 44.8206 19.9365 38.7705C19.9365 30.3643 26.7754 23.5255 35.1816 23.5255C38.4044 23.5255 41.5674 24.5638 44.1649 26.4614L41.4648 29.1534C39.5945 27.9257 37.4354 27.278 35.1817 27.278C28.8447 27.278 23.6893 32.4334 23.6893 38.7704C23.6893 45.1074 28.8447 50.2628 35.1817 50.2628C41.5186 50.2628 46.6741 45.1074 46.6741 38.7704C46.6741 36.5539 46.0456 34.4236 44.8541 32.5725L47.5572 29.8777C49.4368 32.4787 50.4267 35.5364 50.4267 38.7704C50.4267 47.1766 43.5878 54.0154 35.1817 54.0154C33.5238 54.0154 31.8931 53.7498 30.335 53.2259L29.8864 54.5598C31.5895 55.1324 33.3711 55.4227 35.1817 55.4227C44.3638 55.4227 51.8339 47.9525 51.8339 38.7704C51.8339 35.246 50.6971 31.7855 48.6196 28.9464L53.4867 29.9275L53.8214 29.5938C55.2188 32.4317 55.9559 35.5839 55.9559 38.7704C55.9559 44.3194 53.7951 49.5363 49.8713 53.46C45.9476 57.3838 40.7307 59.5446 35.1817 59.5446C29.6327 59.5446 24.4158 57.3838 20.492 53.46C16.5683 49.5363 14.4072 44.3194 14.4072 38.7704C14.4072 35.4384 15.1719 32.2562 16.6802 29.3122C18.1192 26.5032 20.2197 24.0166 22.7544 22.1215L21.9117 20.9944C19.2062 23.0173 16.9641 25.6717 15.4278 28.6706C13.8168 31.8151 13 35.2132 13 38.7704C13 44.6952 15.3073 50.2655 19.4968 54.4552C23.6863 58.6448 29.2566 60.952 35.1816 60.952C41.1065 60.952 46.6767 58.6447 50.8663 54.4552C55.0559 50.2656 57.3631 44.6953 57.3631 38.7704C57.3631 35.2092 56.5026 31.6866 54.871 28.5474L61 22.4367ZM56.3524 25.0832L53.0366 24.4147L54.8285 22.6282L58.1443 23.2966L56.3524 25.0832ZM53.1398 19.5006C53.3287 19.3123 53.5794 19.2087 53.8458 19.2087C53.8464 19.2087 53.8468 19.2088 53.8474 19.2088C54.1145 19.2092 54.3655 19.3136 54.554 19.5027C54.7426 19.692 54.8463 19.9431 54.8458 20.2103C54.8454 20.4774 54.741 20.7283 54.5519 20.9168L36.1739 39.2393C35.985 39.4276 35.7343 39.5311 35.4679 39.5311C35.4673 39.5311 35.4669 39.5311 35.4663 39.5311C35.1992 39.5307 34.9483 39.4263 34.7598 39.2371C34.5711 39.0479 34.4675 38.7967 34.4679 38.5296C34.4684 38.2625 34.5728 38.0115 34.7619 37.823L53.1398 19.5006ZM45.653 21.0035L47.7814 18.8816L48.4397 22.1994L46.3114 24.3213L45.653 21.0035ZM51.4293 19.2189L49.6373 21.0054L48.9789 17.6876L50.771 15.9011L51.4293 19.2189ZM45.2667 38.7704C45.2667 44.3313 40.7425 48.8556 35.1816 48.8556C29.6207 48.8556 25.0964 44.3313 25.0964 38.7704C25.0964 33.2095 29.6207 28.6852 35.1816 28.6852C37.0593 28.6852 38.8625 29.1966 40.4445 30.1705L38.0182 32.5895C37.1327 32.1827 36.161 31.9689 35.1816 31.9689C31.4311 31.9689 28.3799 35.02 28.3799 38.7705C28.3799 42.521 31.4311 45.5721 35.1816 45.5721C37.7456 45.5721 40.0665 44.1508 41.2388 41.8628L39.9863 41.2211C39.0561 43.0369 37.2149 44.1649 35.1815 44.1649C32.207 44.1649 29.7871 41.745 29.7871 38.7705C29.7871 35.796 32.207 33.3761 35.1815 33.3761C35.7788 33.3761 36.3717 33.4783 36.9331 33.6712L33.7682 36.8265C33.3129 37.2805 33.0615 37.8846 33.0606 38.5277C33.0596 39.1707 33.309 39.7755 33.763 40.2308C34.217 40.6861 34.821 40.9375 35.4641 40.9385H35.4678C36.1093 40.9385 36.7128 40.6891 37.1672 40.2361L40.3103 37.1025C40.4848 37.6391 40.5758 38.2031 40.5758 38.7706C40.5758 39.208 40.5231 39.6431 40.4192 40.0636L41.7853 40.4011C41.9164 39.8702 41.9829 39.3217 41.9829 38.7706C41.9829 37.8217 41.7818 36.88 41.3992 36.0168L43.8321 33.5913C44.7728 35.1535 45.2667 36.9282 45.2667 38.7704ZM49.7104 27.7307L51.8387 25.6089L55.1545 26.2774L53.0262 28.3992L49.7104 27.7307Z" fill="#F5FAF6"/>
</g>
<defs>
<clipPath id="clip0_488_2583">
<rect width="48" height="48" fill="white" transform="translate(13 13)"/>
</clipPath>
</defs>
</svg>
