<svg width="74" height="74" viewBox="0 0 74 74" fill="none" xmlns="http://www.w3.org/2000/svg">
<rect width="74" height="74" rx="37" fill="#3CB55F"/>
<path d="M53.517 46.1687C50.244 44.579 44.5085 47.8676 39.9029 50.5093C38.0716 51.5614 36.3494 52.5511 35.5935 52.6991C34.9545 52.8316 34.4324 52.7537 34.0037 52.4575C33.4894 52.1069 33.1933 51.5146 33.0296 51.0704C33.3414 50.9769 33.7232 50.9068 34.1752 50.8912C38.6873 50.7197 41.5238 49.0521 41.5628 46.5428C41.5862 45.3661 41.1186 44.7115 40.7212 44.3686C39.8172 43.5815 38.5937 43.7529 38.4613 43.7685C38.4223 43.7685 34.5648 44.3218 32.2426 44.0179L32.0322 43.9867C29.7099 43.6828 27.5123 43.4023 25.3537 46.4571C23.7172 48.7715 21.0053 48.4286 20.8962 48.4131C20.6702 48.3819 20.4442 48.4442 20.2727 48.5923C20.1013 48.7404 20 48.9586 20 49.1845V58.5983C20 58.9957 20.2961 59.3308 20.6936 59.3698L32.4062 60.6712C32.8036 60.718 33.2089 60.7413 33.6063 60.7413C35.726 60.7413 37.8144 60.1257 39.599 58.9568L53.7119 49.7456C54.3353 49.3404 54.6938 48.6235 54.647 47.8676C54.6002 47.1194 54.1794 46.4882 53.5092 46.1609L53.517 46.1687ZM52.8624 48.4442L38.7496 57.6554C36.9261 58.8477 34.7363 59.362 32.5777 59.1282L21.5586 57.897V49.9872C22.7976 49.9482 25.0654 49.5586 26.6239 47.3532C28.2448 45.0621 29.593 45.2414 31.8295 45.5297L32.0399 45.5609C34.5804 45.8882 38.5158 45.3271 38.6873 45.3037C38.8665 45.2803 39.3964 45.2725 39.7003 45.5375C39.9107 45.7245 40.012 46.044 40.0042 46.5038C39.9731 48.4209 36.8092 49.2157 34.1128 49.317C33.1232 49.356 32.3672 49.582 31.7984 49.8781C31.7516 49.8937 31.7126 49.9171 31.6737 49.9482C30.6528 50.5093 30.2788 51.2574 30.2476 51.3042C30.0606 51.6861 30.2164 52.138 30.5983 52.3329C30.9801 52.5277 31.4399 52.3796 31.6425 52.0056C31.6425 52.0056 31.6659 51.9666 31.6971 51.9198C31.962 52.5277 32.3984 53.2446 33.1076 53.7278C33.8946 54.2733 34.8298 54.4369 35.8974 54.2187C36.8949 54.0161 38.5626 53.0576 40.6666 51.8497C44.5007 49.6521 50.2986 46.3324 52.8235 47.5558C53.0417 47.6649 53.0806 47.8754 53.0806 47.9611C53.0806 48.0312 53.0806 48.2806 52.8469 48.4286L52.8624 48.4442Z" fill="#F5FAF6"/>
<path d="M41.1499 27.762C40.6434 27.3879 39.9109 27.0996 38.9056 26.8814C37.9471 26.671 37.4795 26.4372 37.2613 26.2735C37.1132 26.1644 37.0119 26.0242 37.0119 25.7047C37.0119 25.5098 37.0587 25.2683 37.3782 25.0033C37.6821 24.7539 38.1263 24.6292 38.6952 24.6292C39.3108 24.6292 39.7784 24.7617 40.0979 25.0345C40.3317 25.2371 40.4486 25.4397 40.4641 25.7125C40.4875 26.1411 40.8694 26.4684 41.2902 26.445C41.7188 26.4216 42.0461 26.0475 42.0227 25.6189C41.9838 24.9176 41.672 24.3253 41.111 23.8422C40.6823 23.4837 40.1446 23.2499 39.5212 23.1486V22.2524C39.5212 21.8238 39.1705 21.4731 38.7419 21.4731C38.3133 21.4731 37.9626 21.8238 37.9626 22.2524V23.133C37.3548 23.2343 36.8249 23.4525 36.3963 23.8032C35.7729 24.3097 35.4611 24.9565 35.4611 25.7047C35.4611 26.4528 35.7651 27.0918 36.3339 27.5204C36.8405 27.8945 37.573 28.1906 38.5783 28.4088C39.5368 28.6192 40.0044 28.853 40.2226 29.0166C40.3706 29.1257 40.4719 29.266 40.4719 29.5855C40.4719 29.7803 40.4252 30.0219 40.1057 30.2869C39.8018 30.5362 39.3576 30.6609 38.7887 30.6609C38.173 30.6609 37.7055 30.5284 37.386 30.2557C37.1444 30.0531 37.0353 29.8505 37.0197 29.5777C36.9963 29.1491 36.6223 28.8218 36.1937 28.8452C35.7651 28.8686 35.4378 29.2426 35.4611 29.6712C35.5001 30.3726 35.8118 30.9648 36.3729 31.448C36.8015 31.8065 37.3392 32.0402 37.9626 32.1493V33.0455C37.9626 33.4741 38.3133 33.8248 38.7419 33.8248C39.1705 33.8248 39.5212 33.4741 39.5212 33.0455V32.1649C40.1291 32.0636 40.659 31.8454 41.0876 31.4947C41.711 30.9882 42.0305 30.3414 42.0305 29.5933C42.0305 28.8452 41.7266 28.2062 41.1577 27.7776L41.1499 27.762Z" fill="#F5FAF6"/>
<path d="M38.7416 18.8159C33.91 18.8159 29.9746 22.7747 29.9746 27.6374C29.9746 32.5002 33.91 36.4511 38.7416 36.4511C43.5731 36.4511 47.5085 32.4924 47.5085 27.6374C47.5085 22.7825 43.5731 18.8159 38.7416 18.8159ZM38.7416 34.8926C34.7672 34.8926 31.5332 31.6352 31.5332 27.6374C31.5332 23.6397 34.7672 20.3745 38.7416 20.3745C42.7159 20.3745 45.9499 23.6319 45.9499 27.6374C45.9499 31.6429 42.7159 34.8926 38.7416 34.8926Z" fill="#F5FAF6"/>
<path d="M26.6858 22.8605C27.0754 23.0397 27.543 22.8761 27.7222 22.4864C29.725 18.2705 34.05 15.5508 38.7413 15.5508C44.9054 15.5508 50.002 20.1252 50.7968 26.0322L50.1188 25.549C49.7682 25.2996 49.285 25.3776 49.0278 25.7282C48.7707 26.0789 48.8564 26.5621 49.2071 26.8192L51.2332 28.2843C51.3657 28.3856 51.5294 28.4324 51.6852 28.4324C51.8411 28.4324 52.0047 28.3856 52.1372 28.2843L54.1633 26.8192C54.514 26.5699 54.5919 26.0789 54.3426 25.7282C54.0932 25.3776 53.6023 25.2996 53.2516 25.549L52.3632 26.188C51.6307 19.3459 45.8016 14 38.7179 14C33.4266 14 28.5482 17.0704 26.2961 21.824C26.1091 22.2137 26.2727 22.6812 26.6624 22.8683L26.6858 22.8605Z" fill="#F5FAF6"/>
<path d="M24.2162 29.7262L25.1045 29.0871C25.8371 35.9293 31.6661 41.2829 38.742 41.2829C44.0334 41.2829 48.9117 38.2048 51.1638 33.4511C51.3509 33.0615 51.1872 32.6017 50.7976 32.4147C50.4079 32.2277 49.9403 32.3991 49.7611 32.7887C47.7584 36.9969 43.4333 39.7244 38.742 39.7244C32.5779 39.7244 27.4658 35.15 26.6787 29.2352L27.3645 29.7262C27.5047 29.8275 27.6606 29.8742 27.8165 29.8742C28.058 29.8742 28.2996 29.7651 28.4477 29.5469C28.697 29.1962 28.6191 28.7131 28.2684 28.4559L26.2423 26.9987C25.9695 26.8038 25.6033 26.8038 25.3305 26.9987L23.3044 28.4559C22.9537 28.7053 22.8758 29.1962 23.1252 29.5469C23.3745 29.8976 23.8655 29.9755 24.2162 29.7262Z" fill="#F5FAF6"/>
</svg>
