<svg width="178" height="36" viewBox="0 0 178 36" fill="none" xmlns="http://www.w3.org/2000/svg">
<g clip-path="url(#clip0_1529_905)">
<path d="M16.7751 9.10065C16.7751 7.87318 16.4496 6.99794 15.7985 6.47494C15.1581 5.95194 14.2562 5.69043 13.0927 5.69043H8.49779V12.6389H13.0927C14.2562 12.6389 15.1581 12.3561 15.7985 11.7904C16.4496 11.2246 16.7751 10.3281 16.7751 9.10065ZM21.6583 9.06858C21.6583 11.8544 20.9538 13.8237 19.5449 14.9764C18.136 16.1291 16.124 16.7055 13.509 16.7055H8.49779V25.191H3.59863V1.59179H13.8773C16.2468 1.59179 18.136 2.20019 19.5449 3.41697C20.9538 4.63375 21.6583 6.51764 21.6583 9.06858ZM29.3753 16.2732H35.3631L32.4173 6.98727L29.3753 16.2732ZM29.6795 1.59179H35.2511L43.6084 25.191H38.261L36.74 20.3399H28.0464L26.4134 25.191H21.258L29.6795 1.59179ZM51.5496 5.69043V12.0305H57.1372C58.2472 12.0305 59.0797 11.9025 59.6348 11.6463C60.6167 11.198 61.1078 10.3121 61.1078 8.98854C61.1078 7.55831 60.6327 6.59768 59.6828 6.1067C59.1491 5.82919 58.3486 5.69043 57.2813 5.69043H51.5496ZM58.3059 1.59179C59.9603 1.62381 61.2305 1.82661 62.1164 2.20019C63.0129 2.57376 63.7708 3.12345 64.3899 3.84925C64.9022 4.44697 65.3078 5.10873 65.6066 5.83453C65.9055 6.56033 66.0549 7.38753 66.0549 8.31613C66.0549 9.43682 65.772 10.5415 65.2064 11.6303C64.6407 12.7083 63.7068 13.4715 62.4046 13.9198C63.4933 14.3574 64.2618 14.9818 64.7101 15.793C65.169 16.5935 65.3985 17.8209 65.3985 19.4753V21.0604C65.3985 22.1384 65.4412 22.8695 65.5266 23.2537C65.6547 23.8621 65.9535 24.3105 66.4232 24.5986V25.191H60.9957C60.8462 24.668 60.7395 24.2464 60.6755 23.9262C60.5474 23.2644 60.478 22.5866 60.4673 21.8929L60.4353 19.6994C60.4139 18.1945 60.1365 17.1912 59.6027 16.6895C59.0797 16.1879 58.0925 15.9371 56.6408 15.9371H51.5496V25.191H46.7304V1.59179H58.3059ZM76.7658 16.2732H82.7537L79.8078 6.98727L76.7658 16.2732ZM77.07 1.59179H82.6416L90.9987 25.191H85.6519L84.1306 20.3399H75.4369L73.8039 25.191H68.6486L77.07 1.59179ZM98.7959 5.69043V21.0924H103.343C105.67 21.0924 107.292 19.945 108.21 17.6502C108.712 16.3907 108.962 14.8911 108.962 13.1512C108.962 10.7497 108.584 8.90849 107.826 7.62769C107.079 6.33618 105.585 5.69043 103.343 5.69043H98.7959ZM104.176 1.59179C105.638 1.61314 106.855 1.78392 107.826 2.10412C109.48 2.64847 110.82 3.64645 111.844 5.09806C112.667 6.27215 113.227 7.5423 113.526 8.90849C113.824 10.2748 113.974 11.5769 113.974 12.815C113.974 15.9531 113.344 18.6108 112.085 20.7882C110.377 23.7234 107.74 25.191 104.176 25.191H94.0093V1.59179H104.176ZM122.219 25.191H117.32V1.59179H122.219V25.191ZM142.696 8.95655C142.323 7.34484 141.41 6.21877 139.958 5.57836C139.148 5.22614 138.246 5.05002 137.253 5.05002C135.353 5.05002 133.789 5.77049 132.562 7.21142C131.345 8.64168 130.737 10.7978 130.737 13.6796C130.737 16.5828 131.399 18.6374 132.722 19.8435C134.045 21.0497 135.551 21.6528 137.237 21.6528C138.891 21.6528 140.247 21.1777 141.304 20.2279C142.36 19.2672 143.011 18.0131 143.256 16.4654H137.797V12.5269H147.628V25.191H144.362L143.865 22.2451C142.915 23.3659 142.061 24.1556 141.304 24.6147C140.001 25.4151 138.4 25.8154 136.5 25.8154C133.373 25.8154 130.811 24.732 128.815 22.5653C126.734 20.3879 125.693 17.41 125.693 13.6316C125.693 9.8104 126.745 6.74712 128.848 4.44163C130.95 2.13614 133.731 0.983398 137.189 0.983398C140.188 0.983398 142.595 1.74656 144.41 3.27288C146.235 4.78852 147.281 6.68308 147.547 8.95655H142.696ZM167.993 1.59179H175.085V25.191H170.49V9.22876C170.49 8.76972 170.495 8.12935 170.507 7.30748C170.517 6.47494 170.523 5.83453 170.523 5.38624L166.056 25.191H161.268L156.834 5.38624C156.834 5.83453 156.839 6.47494 156.85 7.30748C156.86 8.12935 156.866 8.76972 156.866 9.22876V25.191H152.27V1.59179H159.443L163.734 20.1477L167.993 1.59179Z" fill="#606665"/>
<path d="M3.82422 28.0714H8.69163V28.8894H4.70589V30.9164H8.39165V31.689H4.70589V33.9523H8.75974V34.7476H3.82422V28.0714ZM20.6147 34.7294L20.1602 35.2794L19.1286 34.4931C18.8802 34.6294 18.6105 34.7385 18.3196 34.8203C18.0319 34.9021 17.7168 34.943 17.3743 34.943C16.3381 34.943 15.5262 34.6037 14.9384 33.925C14.4203 33.2645 14.1613 32.4374 14.1613 31.4436C14.1613 30.5407 14.3855 29.7681 14.8339 29.1258C15.4095 28.3017 16.2609 27.8896 17.388 27.8896C18.5666 27.8896 19.4392 28.2684 20.0057 29.0258C20.4481 29.6166 20.6693 30.3726 20.6693 31.2936C20.6693 31.7239 20.6162 32.1375 20.5102 32.5343C20.3496 33.1403 20.0784 33.6342 19.6967 34.0159L20.6147 34.7294ZM17.4835 34.1341C17.6713 34.1341 17.847 34.1219 18.0106 34.0977C18.1743 34.0705 18.3167 34.0189 18.4378 33.9432L17.7061 33.3705L18.1606 32.8116L19.0332 33.4887C19.3089 33.1736 19.4953 32.8206 19.5922 32.4298C19.6922 32.039 19.7422 31.6648 19.7422 31.3073C19.7422 30.5225 19.5361 29.8909 19.1241 29.4121C18.715 28.9334 18.1546 28.6941 17.4425 28.6941C16.7214 28.6941 16.1503 28.9243 15.7292 29.3849C15.308 29.8424 15.0974 30.5483 15.0974 31.5027C15.0974 32.3056 15.2989 32.9448 15.7019 33.4205C16.1079 33.8962 16.7017 34.1341 17.4835 34.1341ZM27.2933 28.0714V32.198C27.2933 32.6828 27.3842 33.0857 27.5659 33.4069C27.8356 33.8917 28.2901 34.1341 28.9294 34.1341C29.6959 34.1341 30.2171 33.872 30.4928 33.3479C30.6413 33.063 30.7155 32.6797 30.7155 32.198V28.0714H31.6335V31.8208C31.6335 32.6419 31.5229 33.2736 31.3018 33.7159C30.8958 34.5219 30.1292 34.9248 29.0021 34.9248C27.875 34.9248 27.11 34.5219 26.707 33.7159C26.4858 33.2736 26.3753 32.6419 26.3753 31.8208V28.0714H27.2933ZM37.803 28.0714H38.7165V34.7476H37.803V28.0714ZM44.8361 28.0714H47.8401C48.4339 28.0714 48.9127 28.2396 49.2763 28.5759C49.6398 28.9092 49.8216 29.3788 49.8216 29.9848C49.8216 30.5058 49.6595 30.9604 49.3353 31.3482C49.0111 31.7329 48.5127 31.9253 47.8401 31.9253H45.7405V34.7476H44.8361V28.0714ZM48.9081 29.9893C48.9081 29.4985 48.7264 29.1652 48.3628 28.9895C48.1628 28.8955 47.8886 28.8486 47.5402 28.8486H45.7405V31.1619H47.5402C47.9461 31.1619 48.2749 31.0755 48.5263 30.9028C48.7809 30.7301 48.9081 30.4256 48.9081 29.9893ZM55.4958 28.0714H56.791L58.7089 33.7159L60.6132 28.0714H61.8947V34.7476H61.0358V30.8073C61.0358 30.671 61.0388 30.4453 61.0449 30.1301C61.0509 29.815 61.054 29.4773 61.054 29.1167L59.1497 34.7476H58.2544L56.3366 29.1167V29.3212C56.3366 29.4848 56.3395 29.7348 56.3456 30.0711C56.3548 30.4044 56.3593 30.6498 56.3593 30.8073V34.7476H55.4958V28.0714ZM67.9188 28.0714H72.7862V28.8894H68.8005V30.9164H72.4863V31.689H68.8005V33.9523H72.8544V34.7476H67.9188V28.0714ZM78.6013 28.0714H79.6693L83.0414 33.4796V28.0714H83.9004V34.7476H82.8869L79.4648 29.3439V34.7476H78.6013V28.0714ZM94.7461 28.0714V28.8668H92.4971V34.7476H91.579V28.8668H89.3291V28.0714H94.7461ZM107.213 28.0714H111.844V28.8894H108.117V30.9164H111.394V31.7118H108.117V34.7476H107.213V28.0714ZM117.582 28.0714H118.495V34.7476H117.582V28.0714ZM124.529 28.0714H125.597L128.968 33.4796V28.0714H129.827V34.7476H128.814L125.392 29.3439V34.7476H124.529V28.0714ZM139.242 32.0117L138.229 29.0621L137.151 32.0117H139.242ZM137.756 28.0714H138.779L141.201 34.7476H140.21L139.532 32.7479H136.893L136.17 34.7476H135.243L137.756 28.0714ZM146.584 28.0714H147.652L151.024 33.4796V28.0714H151.883V34.7476H150.87L147.447 29.3439V34.7476H146.584V28.0714ZM160.684 27.8896C161.53 27.8896 162.185 28.1124 162.652 28.5577C163.119 29.0031 163.378 29.5091 163.429 30.0757H162.548C162.448 29.6454 162.247 29.3046 161.948 29.0531C161.651 28.8016 161.233 28.6759 160.693 28.6759C160.035 28.6759 159.504 28.9076 159.098 29.3712C158.695 29.8317 158.494 30.5392 158.494 31.4936C158.494 32.2753 158.676 32.9101 159.039 33.3979C159.406 33.8826 159.951 34.125 160.675 34.125C161.342 34.125 161.849 33.869 162.197 33.3569C162.383 33.0872 162.52 32.7328 162.611 32.2935H163.493C163.414 32.9964 163.153 33.5857 162.711 34.0613C162.181 34.634 161.465 34.9203 160.566 34.9203C159.79 34.9203 159.138 34.6855 158.611 34.2159C157.917 33.5948 157.571 32.6358 157.571 31.339C157.571 30.3544 157.831 29.5469 158.352 28.9168C158.916 28.232 159.694 27.8896 160.684 27.8896ZM169.244 28.0714H174.112V28.8894H170.126V30.9164H173.811V31.689H170.126V33.9523H174.179V34.7476H169.244V28.0714Z" fill="#606665"/>
</g>
<defs>
<clipPath id="clip0_1529_905">
<rect width="177.69" height="35.538" fill="white" transform="translate(0.155273 0.230957)"/>
</clipPath>
</defs>
</svg>
