<svg width="156" height="35" viewBox="0 0 156 35" fill="none" xmlns="http://www.w3.org/2000/svg">
<path d="M25.9058 22.2936C25.9058 29.4323 20.5196 34.0454 13.3808 34.0454C6.29361 34.0454 0.933105 29.4581 0.933105 22.3709C0.933105 15.2321 6.31938 10.619 13.4581 10.619C20.5453 10.5932 25.9058 15.1806 25.9058 22.2936ZM13.355 28.0664C16.6796 28.0664 19.0506 25.6181 19.0506 22.2678C19.0506 18.9175 16.7827 16.598 13.4324 16.598C10.082 16.598 7.73682 19.0463 7.73682 22.3966C7.76259 25.7212 10.0305 28.0664 13.355 28.0664ZM35.9052 33.4785H29.2561V11.186H35.9052V13.7116C37.6577 11.7014 40.1833 10.5675 42.8378 10.5932C48.0179 10.5932 50.9043 14.0724 50.9043 19.9999V33.4527H44.281V21.0565C44.281 18.2216 42.6832 16.4692 40.0802 16.4692C37.5031 16.4692 35.8795 18.2216 35.8795 21.005L35.9052 33.4785Z" fill="#0074FF"/>
<path d="M72.1145 30.8497C70.5167 32.8599 68.1457 34.0712 65.0788 34.0712C58.4813 34.0712 54.3836 28.9426 54.3836 22.3451C54.3836 15.7475 58.6617 10.619 65.2592 10.619C68.2745 10.619 70.5682 11.7272 72.1403 13.6343V0.954606H78.7894V33.4527H72.1403V30.8497H72.1145ZM66.6509 28.1695C70.027 28.1695 72.3464 25.6438 72.3464 22.242C72.3464 18.9432 70.1043 16.4949 66.8313 16.4949C63.4552 16.4949 61.1615 18.9432 61.1615 22.3451C61.1873 25.6181 63.3779 28.1695 66.6509 28.1695ZM82.1139 22.3451C82.1139 15.3094 87.294 10.619 94.2266 10.619C100.901 10.619 105.798 15.3352 105.798 21.8554C105.798 22.6286 105.747 23.4275 105.695 24.1491H88.9434C89.665 26.6747 91.7525 28.4272 94.6905 28.4272C96.8295 28.4272 98.5304 27.6283 100.051 25.9016L104.149 29.8704C101.52 32.7568 98.2727 34.0712 94.3812 34.0712C87.3713 34.0712 82.1139 29.3807 82.1139 22.3451ZM89.0723 19.8195H98.917C98.3758 17.6289 96.4687 16.1599 94.0462 16.1599C91.469 16.1599 89.7423 17.6546 89.0723 19.8195ZM120.746 28.0148C122.833 28.0148 124.586 26.9067 125.874 25.2057L130.358 29.2003C127.962 32.2156 124.663 34.0196 120.643 34.0196C113.607 34.0196 108.349 29.3292 108.349 22.2935C108.349 15.2579 113.607 10.5674 120.643 10.5674C124.611 10.5674 128.013 12.2168 130.358 15.2836L125.874 19.4329C124.611 17.732 122.859 16.6495 120.746 16.6495C117.447 16.6495 115.179 19.0463 115.179 22.3451C115.179 25.6181 117.447 28.0148 120.746 28.0148ZM142.394 23.8914L139.662 25.6954V33.4784H133.013V0.928833H139.662V18.7886L153.733 9.25308H154.017V16.6238L148.115 20.5411L155.563 33.1949V33.4784H147.986L142.394 23.8914Z" fill="#000082"/>
</svg>
