<svg width="180" height="35" viewBox="0 0 180 35" fill="none" xmlns="http://www.w3.org/2000/svg">
<path d="M13.593 10.3291C10.8404 10.3291 8.20741 11.3763 6.23269 13.2612V1.38299H0.488045V33.6966C2.64228 33.6966 4.617 32.4998 5.57444 30.5849C7.609 32.7691 10.4514 34.1454 13.5631 34.1454C19.7565 34.1454 24.7831 28.8196 24.7831 22.2372C24.7831 15.6548 19.7864 10.3291 13.593 10.3291ZM12.8749 28.8795C9.19476 28.8795 6.23269 25.8875 6.23269 22.2372C6.23269 18.587 9.22468 15.595 12.8749 15.595C16.5551 15.595 19.5172 18.587 19.5172 22.2372C19.5172 25.8875 16.5551 28.8795 12.8749 28.8795ZM28.0444 27.9519C28.0444 29.4779 28.6428 30.914 29.7199 31.9911C30.797 33.0683 32.2631 33.6667 33.7591 33.6667V1.38299H28.0444V27.9519ZM114.393 10.7779V33.6966H120.108V16.4926C120.138 13.3211 117.565 10.7779 114.393 10.7779ZM75.3479 28.9094C72.2362 28.9094 69.5434 26.7551 68.8552 23.7033H87.1962C88.0041 17.1807 83.3664 11.2566 76.8439 10.4487C73.9716 10.0897 71.0992 10.8078 68.7056 12.4235C63.4397 16.0139 61.9138 23.075 65.2648 28.5204C68.6159 33.9359 75.6172 35.7611 81.1823 32.6793C83.8452 31.1833 85.8498 28.7299 86.7773 25.7977H81.0327C79.776 27.7126 77.6517 28.9094 75.3479 28.9094ZM75.3479 15.5651C77.8911 15.5651 80.2248 17.0012 81.3319 19.3051H69.3639C70.5008 17.0311 72.8047 15.5651 75.3479 15.5651ZM161.757 28.9094C158.645 28.9094 155.952 26.7551 155.264 23.7033H173.605C174.413 17.1807 169.775 11.2566 163.253 10.4487C160.381 10.0897 157.508 10.8078 155.115 12.4235C149.849 16.0139 148.323 23.075 151.674 28.5204C155.025 33.9359 162.026 35.7611 167.591 32.6793C170.254 31.1833 172.259 28.7299 173.186 25.7977H167.442C166.185 27.7126 164.061 28.9094 161.757 28.9094ZM161.757 15.5651C164.3 15.5651 166.634 17.0311 167.741 19.3051H155.773C156.91 17.0311 159.214 15.5651 161.757 15.5651ZM99.613 26.067L93.6589 10.7479H87.7048L96.621 33.6667H102.605L111.521 10.7479H105.567L99.613 26.067ZM54.374 23.7931C54.3141 26.5756 52.0701 28.8196 49.2876 28.8196C46.505 28.8196 44.2311 26.5756 44.2012 23.7931V10.7479H38.4864V24.8403C38.4864 28.7897 40.9997 32.3203 44.7397 33.6068C48.4797 34.8934 52.6386 33.6966 55.092 30.5849C56.0794 32.4699 58.0242 33.6667 60.1485 33.6667V10.7479H54.4338V23.7931H54.374ZM137.222 10.2991C134.38 10.2991 131.687 11.5857 129.922 13.8297C128.935 11.9447 126.99 10.7479 124.865 10.7479V33.6667H130.58V20.6215C130.61 17.8091 132.914 15.5352 135.726 15.595C138.509 15.6249 140.723 17.8689 140.753 20.6215V33.6667H146.468V19.5743C146.468 17.1209 145.48 14.7572 143.745 12.9919C142.04 11.2865 139.676 10.2991 137.222 10.2991ZM114.393 7.75595C114.393 8.02523 114.423 8.29451 114.453 8.56379C114.723 8.59371 114.992 8.62363 115.261 8.62363C119.091 8.62363 122.203 5.51195 122.203 1.68219C122.203 1.41291 122.173 1.14363 122.143 0.874347C118.343 0.425547 114.902 3.11835 114.423 6.91819C114.423 7.18747 114.393 7.45675 114.393 7.75595ZM177.136 10.3889C177.644 10.3889 178.153 10.5086 178.572 10.7779C179.021 11.0172 179.38 11.3763 179.619 11.8251C179.888 12.2739 180.008 12.7526 180.008 13.2612C180.008 13.7699 179.888 14.2486 179.619 14.6974C179.38 15.1462 178.991 15.5052 178.572 15.7446C178.123 16.0139 177.644 16.1335 177.136 16.1335C176.627 16.1335 176.148 16.0139 175.7 15.7446C175.281 15.5052 174.892 15.1462 174.652 14.6974C174.383 14.2486 174.263 13.7699 174.263 13.2612C174.263 12.7526 174.383 12.2739 174.652 11.8251C174.892 11.3763 175.251 11.0172 175.7 10.7779C176.118 10.5086 176.627 10.3889 177.136 10.3889ZM176.178 15.5651C176.477 15.6847 176.807 15.7745 177.136 15.7745C177.465 15.7745 177.794 15.7147 178.093 15.5651C178.392 15.4454 178.662 15.2659 178.871 15.0265C179.11 14.7871 179.29 14.5179 179.41 14.2187C179.529 13.9195 179.619 13.5903 179.619 13.2612C179.619 12.9321 179.559 12.603 179.41 12.3038C179.29 12.0046 179.11 11.7353 178.871 11.4959C178.662 11.2865 178.392 11.107 178.093 10.9574C177.794 10.8377 177.465 10.7479 177.136 10.7479C176.807 10.7479 176.477 10.8078 176.178 10.9574C175.879 11.0771 175.61 11.2566 175.4 11.4959C175.191 11.7054 175.011 11.9747 174.862 12.3038C174.742 12.603 174.652 12.9321 174.652 13.2612C174.652 13.5903 174.712 13.9195 174.862 14.2187C174.981 14.5179 175.161 14.7871 175.4 15.0265C175.61 15.2359 175.879 15.4155 176.178 15.5651ZM178.243 12.603C178.243 12.8124 178.183 13.0219 178.093 13.1715C177.973 13.3211 177.824 13.4408 177.644 13.5006L178.512 14.847H177.854L177.076 13.5903H176.627V14.847H176.089V11.6755H177.285C177.555 11.6755 177.794 11.7652 177.973 11.9447C178.153 12.1243 178.243 12.3337 178.243 12.603ZM176.627 12.1841V13.0817H177.225C177.375 13.0817 177.465 13.0518 177.555 12.962C177.644 12.8723 177.704 12.7526 177.704 12.6329C177.704 12.5132 177.644 12.3936 177.555 12.3038C177.465 12.214 177.345 12.1841 177.225 12.1841H176.627Z" fill="#1943DC"/>
</svg>
