<svg width="274" height="40" viewBox="0 0 274 40" fill="none" xmlns="http://www.w3.org/2000/svg">
<g clip-path="url(#clip0_488_3064)">
<path opacity="0.64" d="M186.051 22.9203C183.749 28.5063 177.354 31.1715 171.768 28.8645C170.903 28.511 170.112 28.0552 169.396 27.5203C168.693 26.925 168.051 26.2552 167.475 25.5296C167.177 25.1482 166.893 24.7529 166.633 24.3482L174.949 10.418H180.312L172.265 23.9063C173.977 25.4226 176.219 26.3436 178.675 26.3436C181.628 26.3436 184.279 25.0133 186.051 22.9156V22.9203Z" fill="white"/>
<path d="M172.39 9.31695C174.083 7.87044 176.278 6.99137 178.674 6.99137C181.218 6.99137 183.539 7.97742 185.269 9.59602C185.464 9.77742 185.655 9.96346 185.832 10.1635C185.911 10.2472 185.985 10.3356 186.055 10.4193H185.683L182.929 15.0286H192.869C192.683 13.3914 192.218 11.8425 191.52 10.4193C189.199 5.66578 184.315 2.38672 178.678 2.38672C170.804 2.38672 164.395 8.79602 164.395 16.6704C164.395 18.0797 164.599 19.4472 164.981 20.7355L170.404 11.6611C170.939 10.7821 171.613 9.99137 172.395 9.3216L172.39 9.31695Z" fill="white"/>
<path d="M178.213 22.9218H186.05C183.748 28.5079 177.353 31.173 171.767 28.866C170.902 28.5125 170.111 28.0567 169.395 27.5218C169.548 27.6567 169.706 27.7869 169.869 27.9125C172.297 29.8148 175.353 30.9544 178.674 30.9544C184.311 30.9544 189.195 27.6753 191.515 22.9218C192.213 21.5032 192.674 19.9497 192.864 18.3125H180.967L178.213 22.9218Z" fill="white"/>
<path d="M37.7451 11.4611C36.0195 10.3401 34.0521 9.77734 31.8288 9.77734C29.8428 9.77734 28.0427 10.2425 26.4241 11.1681C24.8055 12.0936 23.5311 13.3541 22.6055 14.9494C21.68 16.5448 21.2148 18.3169 21.2148 20.275C21.2148 22.2332 21.6893 24.0145 22.6428 25.6192C23.5962 27.2239 24.8939 28.4843 26.5404 29.4006C28.1869 30.3169 30.0148 30.7727 32.0241 30.7727C34.1404 30.7727 36.0195 30.2843 37.666 29.3029C39.3125 28.3262 40.6055 27.0099 41.5451 25.368L37.1962 23.4099C36.6986 24.2983 36.0148 24.9913 35.1404 25.4843C34.266 25.982 33.28 26.2285 32.1823 26.2285C31.0846 26.2285 30.0521 25.9727 29.1683 25.4657C28.28 24.9587 27.5962 24.2471 27.1125 23.3308C26.9172 22.9587 26.7683 22.5634 26.6521 22.1541H42.252C42.6195 19.9355 42.3869 17.8797 41.5683 15.9866C40.7451 14.0936 39.4753 12.5867 37.7497 11.4611H37.7451ZM29.0474 15.1029C29.8846 14.582 30.8102 14.3215 31.8288 14.3215C32.8474 14.3215 33.7544 14.5587 34.5497 15.0285C35.3451 15.4983 35.9776 16.1494 36.4474 16.9866C36.6474 17.3448 36.8055 17.7262 36.9265 18.1215H26.7265C26.8241 17.8285 26.9404 17.5355 27.0846 17.2611C27.5544 16.3448 28.2055 15.6285 29.0427 15.1076L29.0474 15.1029Z" fill="white"/>
<path d="M62.0899 10.8564C60.955 10.1401 59.6527 9.77734 58.1922 9.77734C56.2852 9.77734 54.662 10.4425 53.3178 11.7727C52.3364 12.7401 51.6294 13.9355 51.1829 15.3494V10.168H45.8945V30.3773H51.1829V19.0564C51.1829 18.196 51.3829 17.4239 51.7922 16.7448C52.1969 16.0657 52.7643 15.5355 53.4945 15.1587C54.2248 14.782 55.048 14.5913 55.9596 14.5913C56.7969 14.5913 57.5503 14.782 58.2294 15.1587C58.9085 15.5401 59.4294 16.0657 59.7969 16.7448C60.1643 17.4239 60.3457 18.196 60.3457 19.0564V30.3773H65.6341V18.1169C65.6341 16.5262 65.3271 15.0936 64.7131 13.8285C64.0992 12.5634 63.2248 11.5727 62.0899 10.8518V10.8564Z" fill="white"/>
<path d="M85.0568 15.9759C84.9451 15.6271 84.8242 15.2829 84.6847 14.948C84.0196 13.3573 83.0707 12.0969 81.8428 11.1666C80.6149 10.241 79.2056 9.77592 77.6149 9.77592C76.0242 9.77592 74.4893 10.2317 73.1684 11.148C71.8475 12.0643 70.8102 13.3155 70.0567 14.9062C69.2986 16.5015 68.9219 18.2876 68.9219 20.2736C68.9219 22.2596 69.2986 24.0457 70.0567 25.641C70.8149 27.2364 71.8521 28.4876 73.1684 29.3992C74.4847 30.3155 75.9684 30.7713 77.6149 30.7713C79.2614 30.7713 80.6149 30.3062 81.8428 29.3806C83.0707 28.455 84.0149 27.1945 84.6847 25.5992C84.8242 25.2643 84.9451 24.9201 85.0568 24.5713V30.3806H90.3451V1.39453H85.0568V15.9759ZM84.3544 23.1341C83.8847 23.9945 83.2242 24.6736 82.3777 25.1713C81.5265 25.6689 80.5823 25.9155 79.5358 25.9155C78.5684 25.9155 77.6986 25.6689 76.9312 25.1713C76.1591 24.6736 75.5451 23.9945 75.0893 23.1341C74.6335 22.2736 74.4056 21.3201 74.4056 20.2736C74.4056 19.2271 74.6335 18.2783 75.0893 17.4131C75.5451 16.5527 76.1684 15.8736 76.9498 15.3759C77.7312 14.8783 78.5963 14.6317 79.5358 14.6317C80.6056 14.6317 81.5591 14.8783 82.3963 15.3759C83.2335 15.8736 83.8847 16.5527 84.3544 17.4131C84.8242 18.2736 85.0614 19.2271 85.0614 20.2736C85.0614 21.3201 84.8242 22.2689 84.3544 23.1341Z" fill="white"/>
<path d="M99.8665 10.168H94.5781V30.3773H99.8665V10.168Z" fill="white"/>
<path d="M120.289 10.8564C119.154 10.1401 117.852 9.77734 116.391 9.77734C114.484 9.77734 112.861 10.4425 111.517 11.7727C110.536 12.7401 109.829 13.9355 109.382 15.3494V10.168H104.094V30.3773H109.382V19.0564C109.382 18.196 109.582 17.4239 109.991 16.7448C110.396 16.0657 110.964 15.5355 111.694 15.1587C112.424 14.782 113.247 14.5913 114.159 14.5913C114.996 14.5913 115.75 14.782 116.429 15.1587C117.108 15.5401 117.629 16.0657 117.996 16.7448C118.364 17.4239 118.545 18.196 118.545 19.0564V30.3773H123.833V18.1169C123.833 16.5262 123.526 15.0936 122.912 13.8285C122.298 12.5634 121.424 11.5727 120.289 10.8518V10.8564Z" fill="white"/>
<path d="M143.26 15.7766C143.148 15.4371 143.027 15.0975 142.888 14.772C142.223 13.2185 141.274 11.9999 140.046 11.1115C138.818 10.2231 137.409 9.78125 135.818 9.78125C134.227 9.78125 132.692 10.2278 131.371 11.1115C130.051 11.9999 129.013 13.2185 128.26 14.772C127.502 16.3254 127.125 18.0557 127.125 19.9627C127.125 21.8696 127.502 23.5998 128.26 25.1533C129.018 26.7068 130.055 27.9301 131.371 28.8138C132.688 29.7022 134.171 30.144 135.818 30.144C137.465 30.144 138.818 29.7022 140.046 28.8138C141.274 27.9254 142.218 26.7068 142.888 25.1533C143.027 24.8278 143.148 24.4929 143.26 24.1487V28.1115C143.26 29.1813 143.013 30.1533 142.516 31.0278C142.018 31.9022 141.348 32.5812 140.497 33.065C139.651 33.5487 138.73 33.7906 137.734 33.7906C136.688 33.7906 135.767 33.5161 134.972 32.9673C134.176 32.4185 133.544 31.6464 133.074 30.6557L128.334 33.1626C129.223 34.8092 130.497 36.1254 132.153 37.1208C133.809 38.1115 135.669 38.6092 137.734 38.6092C139.799 38.6092 141.572 38.1533 143.218 37.2371C144.865 36.3208 146.162 35.065 147.116 33.4557C148.069 31.851 148.544 30.0789 148.544 28.1487V10.1719H143.255V15.7766H143.26ZM142.553 22.6836C142.083 23.5068 141.437 24.1533 140.613 24.6231C139.79 25.0929 138.883 25.3301 137.892 25.3301C136.902 25.3301 136.004 25.0929 135.209 24.6231C134.413 24.1533 133.781 23.5068 133.311 22.6836C132.841 21.8603 132.604 20.9534 132.604 19.9627C132.604 18.972 132.841 18.0696 133.311 17.2603C133.781 16.451 134.423 15.8092 135.232 15.3394C136.041 14.8696 136.93 14.6324 137.897 14.6324C138.916 14.6324 139.827 14.8696 140.641 15.3394C141.451 15.8092 142.092 16.451 142.562 17.2603C143.032 18.0696 143.269 18.972 143.269 19.9627C143.269 20.9534 143.032 21.8603 142.562 22.6836H142.553Z" fill="white"/>
<path d="M208.822 21.8424C208.822 22.6517 208.645 23.368 208.292 23.9959C207.938 24.6238 207.445 25.0982 206.804 25.4238C206.162 25.7494 205.441 25.9122 204.631 25.9122C203.822 25.9122 203.097 25.7494 202.459 25.4238C201.817 25.0982 201.324 24.6191 200.971 23.9959C200.617 23.368 200.441 22.6517 200.441 21.8424V10.168H195.152V21.8424C195.152 23.5912 195.557 25.1447 196.366 26.5029C197.176 27.861 198.297 28.9122 199.734 29.6564C201.171 30.4005 202.804 30.7726 204.631 30.7726C206.459 30.7726 208.092 30.3959 209.529 29.6377C210.966 28.8796 212.087 27.8284 212.897 26.4843C213.706 25.1401 214.11 23.5912 214.11 21.8424V10.168H208.822V21.8424Z" fill="white"/>
<path d="M247.092 21.8424C247.092 22.6517 246.915 23.368 246.561 23.9959C246.208 24.6238 245.71 25.0982 245.073 25.4238C244.431 25.7494 243.71 25.9122 242.901 25.9122C242.092 25.9122 241.366 25.7494 240.729 25.4238C240.087 25.0982 239.594 24.6191 239.24 23.9959C238.887 23.368 238.71 22.6517 238.71 21.8424V10.168H233.422V21.8424C233.422 23.5912 233.827 25.1447 234.636 26.5029C235.445 27.861 236.566 28.9122 238.003 29.6564C239.44 30.4005 241.073 30.7726 242.901 30.7726C244.729 30.7726 246.361 30.3959 247.799 29.6377C249.236 28.8796 250.357 27.8284 251.166 26.4843C251.975 25.1401 252.38 23.5912 252.38 21.8424V10.168H247.092V21.8424Z" fill="white"/>
<path d="M271.962 20.8773C271.232 20.054 270.357 19.4726 269.339 19.1331C268.32 18.7935 267.027 18.4959 265.459 18.2307C264.441 18.0494 263.66 17.8866 263.111 17.7424C262.562 17.5982 262.106 17.3842 261.739 17.0959C261.371 16.8075 261.19 16.4168 261.19 15.9191C261.19 15.347 261.469 14.8726 262.032 14.5098C262.594 14.1424 263.306 13.961 264.166 13.961C265.106 13.961 265.869 14.1889 266.459 14.6447C267.046 15.1005 267.404 15.7889 267.534 16.7005L272.78 15.6028C272.492 13.8028 271.58 12.3796 270.036 11.3331C268.492 10.2866 266.539 9.76562 264.162 9.76562C262.622 9.76562 261.213 10.04 259.934 10.5889C258.655 11.1377 257.655 11.9005 256.939 12.8819C256.218 13.8633 255.859 14.9517 255.859 16.1517C255.859 17.64 256.232 18.7935 256.976 19.6168C257.72 20.44 258.59 21.0075 259.58 21.3191C260.571 21.6307 261.864 21.9191 263.46 22.1796C264.427 22.3377 265.194 22.4866 265.771 22.6307C266.343 22.7749 266.818 22.9889 267.18 23.2772C267.548 23.5656 267.729 23.9563 267.729 24.454C267.729 25.054 267.404 25.5563 266.753 25.961C266.101 26.3656 265.236 26.5703 264.166 26.5703C263.097 26.5703 262.26 26.3424 261.66 25.8866C261.06 25.4307 260.692 24.7424 260.562 23.8307L255.273 24.9284C255.455 26.1052 255.939 27.1331 256.725 28.0214C257.506 28.9098 258.525 29.5889 259.78 30.0586C261.032 30.5284 262.497 30.7656 264.166 30.7656C265.836 30.7656 267.273 30.4866 268.632 29.9238C269.99 29.361 271.064 28.5982 271.864 27.6307C272.659 26.6633 273.059 25.5796 273.059 24.3796C273.059 22.8633 272.692 21.6959 271.962 20.8726V20.8773Z" fill="white"/>
<path d="M94.5781 7.78058H94.8293C97.6107 7.78058 99.8665 5.52476 99.8665 2.74337V1.39453H94.5781V7.78058Z" fill="white"/>
<path d="M223.476 15.2059V10.1687H218.188V30.378H223.476V15.4524H231.225V10.1641H228.513C225.732 10.1641 223.476 12.4199 223.476 15.2013V15.2059Z" fill="white"/>
<path d="M6.99454 2.96094H1.39453V30.3795H6.99454V2.96094Z" fill="white"/>
<path d="M6.99609 30.3813H19.6473V24.7812H12.5961C9.50307 24.7812 6.99609 27.2882 6.99609 30.3813Z" fill="white"/>
</g>
<defs>
<clipPath id="clip0_488_3064">
<rect width="273.488" height="40" fill="white"/>
</clipPath>
</defs>
</svg>
