<svg width="273" height="52" viewBox="0 0 273 52" fill="none" xmlns="http://www.w3.org/2000/svg">
<g clip-path="url(#clip0_1524_794)">
<path opacity="0.64" d="M186.051 28.9213C183.749 34.5073 177.354 37.1724 171.768 34.8655C170.903 34.512 170.112 34.0562 169.396 33.5213C168.693 32.9259 168.051 32.2562 167.475 31.5306C167.177 31.1492 166.893 30.7538 166.633 30.3492L174.949 16.4189H180.312L172.265 29.9073C173.977 31.4236 176.219 32.3445 178.675 32.3445C181.628 32.3445 184.279 31.0143 186.051 28.9166V28.9213Z" fill="#0F9135"/>
<path d="M172.391 15.3165C174.084 13.8699 176.279 12.9909 178.675 12.9909C181.219 12.9909 183.54 13.9769 185.27 15.5955C185.465 15.7769 185.656 15.963 185.833 16.163C185.912 16.2467 185.986 16.3351 186.056 16.4188H185.684L182.93 21.0281H192.87C192.684 19.3909 192.219 17.842 191.521 16.4188C189.2 11.6653 184.316 8.38623 178.679 8.38623C170.805 8.38623 164.396 14.7955 164.396 22.6699C164.396 24.0793 164.6 25.4467 164.982 26.7351L170.405 17.6607C170.94 16.7816 171.614 15.9909 172.396 15.3211L172.391 15.3165Z" fill="#0F9135"/>
<path d="M178.214 28.9208H186.051C183.749 34.5069 177.354 37.172 171.768 34.865C170.903 34.5115 170.112 34.0557 169.396 33.5208C169.549 33.6557 169.707 33.7859 169.87 33.9115C172.298 35.8139 175.354 36.9534 178.675 36.9534C184.312 36.9534 189.196 33.6743 191.516 28.9208C192.214 27.5022 192.675 25.9487 192.865 24.3115H180.968L178.214 28.9208Z" fill="#0F9135"/>
<path d="M37.7441 17.4606C36.0185 16.3397 34.0511 15.7769 31.8278 15.7769C29.8418 15.7769 28.0418 16.242 26.4232 17.1676C24.8046 18.0931 23.5301 19.3536 22.6046 20.949C21.679 22.5443 21.2139 24.3164 21.2139 26.2745C21.2139 28.2327 21.6883 30.0141 22.6418 31.6187C23.5953 33.2234 24.8929 34.4838 26.5394 35.4001C28.186 36.3164 30.0139 36.7722 32.0232 36.7722C34.1394 36.7722 36.0185 36.2838 37.665 35.3024C39.3115 34.3257 40.6046 33.0094 41.5441 31.3676L37.1953 29.4094C36.6976 30.2978 36.0139 30.9908 35.1394 31.4838C34.265 31.9815 33.279 32.228 32.1813 32.228C31.0836 32.228 30.0511 31.9722 29.1674 31.4652C28.279 30.9583 27.5953 30.2466 27.1115 29.3303C26.9162 28.9583 26.7674 28.5629 26.6511 28.1536H42.2511C42.6185 25.935 42.386 23.8792 41.5673 21.9862C40.7441 20.0931 39.4743 18.5862 37.7487 17.4606H37.7441ZM29.0464 21.1024C29.8836 20.5815 30.8092 20.3211 31.8278 20.3211C32.8464 20.3211 33.7534 20.5583 34.5487 21.028C35.3441 21.4978 35.9767 22.1489 36.4464 22.9862C36.6464 23.3443 36.8046 23.7257 36.9255 24.121H26.7255C26.8232 23.828 26.9394 23.535 27.0836 23.2606C27.5534 22.3443 28.2046 21.628 29.0418 21.1071L29.0464 21.1024Z" fill="#0F9135"/>
<path d="M62.0889 16.8559C60.954 16.1396 59.6517 15.7769 58.1912 15.7769C56.2843 15.7769 54.661 16.442 53.3168 17.7722C52.3354 18.7397 51.6284 19.935 51.1819 21.349V16.1676H45.8936V36.3769H51.1819V25.0559C51.1819 24.1955 51.3819 23.4234 51.7912 22.7443C52.1959 22.0652 52.7633 21.535 53.4936 21.1583C54.2238 20.7815 55.047 20.5908 55.9587 20.5908C56.7959 20.5908 57.5494 20.7815 58.2284 21.1583C58.9075 21.5396 59.4284 22.0652 59.7959 22.7443C60.1633 23.4234 60.3447 24.1955 60.3447 25.0559V36.3769H65.6331V24.1164C65.6331 22.5257 65.3261 21.0931 64.7122 19.828C64.0982 18.5629 63.2238 17.5722 62.0889 16.8513V16.8559Z" fill="#0F9135"/>
<path d="M85.0558 21.9769C84.9442 21.6281 84.8232 21.2839 84.6837 20.949C84.0186 19.3583 83.0697 18.0978 81.8418 17.1676C80.6139 16.242 79.2046 15.7769 77.6139 15.7769C76.0232 15.7769 74.4883 16.2327 73.1674 17.149C71.8465 18.0653 70.8093 19.3164 70.0558 20.9071C69.2976 22.5025 68.9209 24.2885 68.9209 26.2746C68.9209 28.2606 69.2976 30.0467 70.0558 31.642C70.8139 33.2374 71.8511 34.4885 73.1674 35.4002C74.4837 36.3164 75.9674 36.7723 77.6139 36.7723C79.2604 36.7723 80.6139 36.3071 81.8418 35.3816C83.0697 34.456 84.0139 33.1955 84.6837 31.6002C84.8232 31.2653 84.9442 30.9211 85.0558 30.5722V36.3816H90.3442V7.39551H85.0558V21.9769ZM84.3535 29.135C83.8837 29.9955 83.2232 30.6746 82.3767 31.1722C81.5255 31.6699 80.5814 31.9164 79.5349 31.9164C78.5674 31.9164 77.6976 31.6699 76.9302 31.1722C76.1581 30.6746 75.5442 29.9955 75.0883 29.135C74.6325 28.2746 74.4046 27.3211 74.4046 26.2746C74.4046 25.2281 74.6325 24.2792 75.0883 23.4141C75.5442 22.5536 76.1674 21.8746 76.9488 21.3769C77.7302 20.8792 78.5953 20.6327 79.5349 20.6327C80.6046 20.6327 81.5581 20.8792 82.3953 21.3769C83.2325 21.8746 83.8837 22.5536 84.3535 23.4141C84.8232 24.2746 85.0604 25.2281 85.0604 26.2746C85.0604 27.3211 84.8232 28.2699 84.3535 29.135Z" fill="#0F9135"/>
<path d="M99.8655 16.1675H94.5771V36.3768H99.8655V16.1675Z" fill="#0F9135"/>
<path d="M120.288 16.8559C119.153 16.1396 117.851 15.7769 116.39 15.7769C114.483 15.7769 112.86 16.442 111.516 17.7722C110.535 18.7397 109.828 19.935 109.381 21.349V16.1676H104.093V36.3769H109.381V25.0559C109.381 24.1955 109.581 23.4234 109.99 22.7443C110.395 22.0652 110.963 21.535 111.693 21.1583C112.423 20.7815 113.246 20.5908 114.158 20.5908C114.995 20.5908 115.749 20.7815 116.428 21.1583C117.107 21.5396 117.628 22.0652 117.995 22.7443C118.363 23.4234 118.544 24.1955 118.544 25.0559V36.3769H123.832V24.1164C123.832 22.5257 123.525 21.0931 122.911 19.828C122.297 18.5629 121.423 17.5722 120.288 16.8513V16.8559Z" fill="#0F9135"/>
<path d="M143.261 21.7766C143.149 21.4371 143.028 21.0975 142.889 20.772C142.224 19.2185 141.275 17.9999 140.047 17.1115C138.819 16.2231 137.41 15.7812 135.819 15.7812C134.228 15.7812 132.693 16.2278 131.372 17.1115C130.052 17.9999 129.014 19.2185 128.261 20.772C127.503 22.3254 127.126 24.0557 127.126 25.9627C127.126 27.8696 127.503 29.5998 128.261 31.1533C129.019 32.7068 130.056 33.9301 131.372 34.8138C132.689 35.7022 134.172 36.144 135.819 36.144C137.465 36.144 138.819 35.7022 140.047 34.8138C141.275 33.9254 142.219 32.7068 142.889 31.1533C143.028 30.8278 143.149 30.4929 143.261 30.1487V34.1115C143.261 35.1813 143.014 36.1533 142.517 37.0278C142.019 37.9022 141.349 38.5812 140.498 39.065C139.652 39.5487 138.731 39.7906 137.735 39.7906C136.689 39.7906 135.768 39.5161 134.972 38.9673C134.177 38.4185 133.545 37.6464 133.075 36.6557L128.335 39.1626C129.224 40.8092 130.498 42.1254 132.154 43.1208C133.81 44.1115 135.67 44.6092 137.735 44.6092C139.8 44.6092 141.572 44.1533 143.219 43.2371C144.866 42.3208 146.163 41.065 147.117 39.4557C148.07 37.851 148.545 36.0789 148.545 34.1487V16.1719H143.256V21.7766H143.261ZM142.554 28.6836C142.084 29.5068 141.438 30.1533 140.614 30.6231C139.791 31.0929 138.884 31.3301 137.893 31.3301C136.903 31.3301 136.005 31.0929 135.21 30.6231C134.414 30.1533 133.782 29.5068 133.312 28.6836C132.842 27.8603 132.605 26.9534 132.605 25.9627C132.605 24.972 132.842 24.0696 133.312 23.2603C133.782 22.451 134.424 21.8092 135.233 21.3394C136.042 20.8696 136.931 20.6324 137.898 20.6324C138.917 20.6324 139.828 20.8696 140.642 21.3394C141.452 21.8092 142.093 22.451 142.563 23.2603C143.033 24.0696 143.27 24.972 143.27 25.9627C143.27 26.9534 143.033 27.8603 142.563 28.6836H142.554Z" fill="#0F9135"/>
<path d="M208.823 27.8419C208.823 28.6512 208.646 29.3675 208.293 29.9954C207.939 30.6233 207.446 31.0977 206.805 31.4233C206.163 31.7489 205.442 31.9117 204.632 31.9117C203.823 31.9117 203.098 31.7489 202.46 31.4233C201.818 31.0977 201.325 30.6186 200.972 29.9954C200.618 29.3675 200.442 28.6512 200.442 27.8419V16.1675H195.153V27.8419C195.153 29.5907 195.558 31.1442 196.367 32.5024C197.177 33.8605 198.298 34.9117 199.735 35.6559C201.172 36.4001 202.804 36.7721 204.632 36.7721C206.46 36.7721 208.093 36.3954 209.53 35.6373C210.967 34.8791 212.088 33.828 212.898 32.4838C213.707 31.1396 214.111 29.5907 214.111 27.8419V16.1675H208.823V27.8419Z" fill="#0F9135"/>
<path d="M247.094 27.8419C247.094 28.6512 246.917 29.3675 246.563 29.9954C246.21 30.6233 245.712 31.0977 245.075 31.4233C244.433 31.7489 243.712 31.9117 242.903 31.9117C242.094 31.9117 241.368 31.7489 240.731 31.4233C240.089 31.0977 239.596 30.6186 239.242 29.9954C238.889 29.3675 238.712 28.6512 238.712 27.8419V16.1675H233.424V27.8419C233.424 29.5907 233.828 31.1442 234.638 32.5024C235.447 33.8605 236.568 34.9117 238.005 35.6559C239.442 36.4001 241.075 36.7721 242.903 36.7721C244.731 36.7721 246.363 36.3954 247.801 35.6373C249.238 34.8791 250.359 33.828 251.168 32.4838C251.977 31.1396 252.382 29.5907 252.382 27.8419V16.1675H247.094V27.8419Z" fill="#0F9135"/>
<path d="M271.963 26.8792C271.233 26.056 270.358 25.4746 269.34 25.135C268.321 24.7955 267.028 24.4978 265.46 24.2327C264.442 24.0513 263.66 23.8885 263.112 23.7443C262.563 23.6001 262.107 23.3862 261.74 23.0978C261.372 22.8094 261.191 22.4187 261.191 21.9211C261.191 21.349 261.47 20.8746 262.033 20.5118C262.595 20.1443 263.307 19.9629 264.167 19.9629C265.107 19.9629 265.87 20.1908 266.46 20.6466C267.047 21.1025 267.405 21.7908 267.535 22.7025L272.781 21.6048C272.493 19.8048 271.581 18.3815 270.037 17.335C268.493 16.2885 266.54 15.7676 264.163 15.7676C262.623 15.7676 261.214 16.042 259.935 16.5908C258.656 17.1397 257.656 17.9025 256.94 18.8839C256.219 19.8653 255.86 20.9536 255.86 22.1536C255.86 23.642 256.233 24.7955 256.977 25.6187C257.721 26.442 258.591 27.0094 259.581 27.3211C260.572 27.6327 261.865 27.9211 263.46 28.1815C264.428 28.3397 265.195 28.4885 265.772 28.6327C266.344 28.7769 266.819 28.9908 267.181 29.2792C267.549 29.5676 267.73 29.9583 267.73 30.4559C267.73 31.0559 267.405 31.5583 266.753 31.9629C266.102 32.3676 265.237 32.5722 264.167 32.5722C263.098 32.5722 262.26 32.3443 261.66 31.8885C261.06 31.4327 260.693 30.7443 260.563 29.8327L255.274 30.9304C255.456 32.1071 255.94 33.135 256.726 34.0234C257.507 34.9118 258.526 35.5908 259.781 36.0606C261.033 36.5304 262.498 36.7676 264.167 36.7676C265.837 36.7676 267.274 36.4885 268.633 35.9257C269.991 35.3629 271.065 34.6001 271.865 33.6327C272.66 32.6653 273.06 31.5815 273.06 30.3815C273.06 28.8653 272.693 27.6978 271.963 26.8746V26.8792Z" fill="#0F9135"/>
<path d="M94.5771 13.7816H94.8283C97.6097 13.7816 99.8655 11.5257 99.8655 8.74434V7.39551H94.5771V13.7816Z" fill="#0F9135"/>
<path d="M223.475 21.2049V16.1677H218.187V36.377H223.475V21.4515H231.224V16.1631H228.512C225.731 16.1631 223.475 18.4189 223.475 21.2003V21.2049Z" fill="#0F9135"/>
<path d="M6.99551 8.96289H1.39551V36.3815H6.99551V8.96289Z" fill="#0F9135"/>
<path d="M6.99512 36.3813H19.6463V30.7812H12.5951C9.5021 30.7812 6.99512 33.2882 6.99512 36.3813Z" fill="#0F9135"/>
</g>
<defs>
<clipPath id="clip0_1524_794">
<rect width="273" height="52" fill="white"/>
</clipPath>
</defs>
</svg>
