<svg width="15" height="15" viewBox="0 0 15 15" fill="none" xmlns="http://www.w3.org/2000/svg">
<path d="M7.22653 0C6.47844 0 5.87193 0.607159 5.87193 1.35525V5.87193H1.35492C0.606838 5.87193 0 6.47845 0 7.22685C0 7.97526 0.606838 8.5821 1.35492 8.5821H5.87193V13.0991C5.87193 13.8465 6.47844 14.4537 7.22653 14.4537C7.97526 14.4537 8.58178 13.8469 8.58178 13.0991V8.5821H13.0985C13.8469 8.5821 14.4534 7.97558 14.4534 7.22685C14.4534 6.47845 13.8469 5.87193 13.0985 5.87193H8.58178V1.35525C8.58178 0.607159 7.97526 0 7.22653 0Z" fill="#0F9135"/>
</svg>
