<svg width="70" height="70" viewBox="0 0 70 70" fill="none" xmlns="http://www.w3.org/2000/svg">
<g clip-path="url(#clip0_488_2494)">
<path d="M41.4344 43.8687C50.9869 43.8687 58.758 36.4955 58.758 27.4324C58.758 20.4748 54.0316 13.4734 46.7172 9.59746C46.5258 9.49629 46.4479 9.26934 46.534 9.06973L48.5684 4.35703C49.1166 3.08828 48.7981 1.61719 47.7768 0.69707C46.8703 -0.116406 45.5756 -0.224414 44.5516 0.431836L43.9801 0.799609C43.8078 0.908984 43.626 0.910352 43.4565 0.800977L42.8686 0.425C41.9826 -0.141016 40.882 -0.141016 39.9988 0.425L39.4082 0.800977C39.2387 0.908984 39.0582 0.908984 38.8914 0.802344L38.3117 0.429102C37.2904 -0.225781 35.9943 -0.119141 35.0879 0.695703C34.0666 1.61582 33.7494 3.08691 34.2963 4.35566L36.332 9.07109C36.4182 9.26797 36.3389 9.49356 36.1475 9.59473C28.833 13.4721 24.1066 20.4721 24.1066 27.4297C24.1066 36.4955 31.8805 43.8687 41.4344 43.8687ZM36.3033 3.49023C36.1242 3.07598 36.2213 2.61797 36.5494 2.32129C36.6465 2.23516 36.76 2.19004 36.8734 2.19004C36.9609 2.19004 37.0484 2.21602 37.1291 2.26797L37.7129 2.64395C38.6016 3.20859 39.7022 3.20723 40.584 2.64258L41.1746 2.2666C41.3428 2.15859 41.5219 2.15859 41.6914 2.2666L42.2793 2.64258C43.1625 3.20723 44.2631 3.20859 45.1572 2.63984L45.7328 2.26934C45.9215 2.14766 46.1443 2.16816 46.3139 2.31992C46.6434 2.6166 46.7404 3.07598 46.5613 3.48887L44.527 8.2002C44.3943 8.50508 44.326 8.8209 44.3123 9.13262C43.5973 9.28574 42.8098 9.36641 41.9881 9.36641C40.8355 9.36641 39.7021 9.20098 38.7971 8.90293C38.7055 8.87285 38.6125 8.85645 38.5209 8.85098C38.4895 8.63086 38.4293 8.41348 38.3377 8.20156L36.3033 3.49023ZM37.1715 11.5279C37.4723 11.368 37.7307 11.1547 37.9385 10.9059C37.9932 10.9346 38.0492 10.9605 38.1107 10.9811C39.2469 11.357 40.5881 11.5553 41.9881 11.5553C43.1174 11.5553 44.207 11.424 45.1846 11.1752C45.3363 11.3092 45.5045 11.4295 45.6918 11.5293C52.3008 15.032 56.5705 21.2746 56.5705 27.4338C56.5705 35.291 49.7797 41.684 41.433 41.684C33.0836 41.684 26.2914 35.291 26.2914 27.4338C26.2928 21.2732 30.5625 15.0307 37.1715 11.5279ZM36.034 30.3104L45.1258 21.2186C45.5523 20.792 46.2441 20.792 46.6707 21.2186C47.0973 21.6451 47.0973 22.3369 46.6707 22.7635L37.5789 31.8553C37.3656 32.0686 37.0854 32.1752 36.8064 32.1752C36.5275 32.1752 36.2473 32.0686 36.034 31.8553C35.6074 31.4287 35.6074 30.7369 36.034 30.3104ZM37.6856 25.9969C38.4854 25.9969 39.2865 25.6934 39.8963 25.0863C40.4869 24.4957 40.8123 23.7109 40.8123 22.8756C40.8123 22.0402 40.4869 21.2555 39.8963 20.6648C38.6768 19.4467 36.6943 19.4453 35.4748 20.6648L35.4734 20.6662C34.2607 21.8844 34.2607 23.8654 35.4775 25.0877C36.0873 25.6934 36.8857 25.9969 37.6856 25.9969ZM37.0225 22.2084C37.2002 22.032 37.4354 21.9336 37.6856 21.9336C37.9371 21.9336 38.1723 22.032 38.35 22.2098C38.5277 22.3875 38.6262 22.624 38.6262 22.8742C38.6262 23.1258 38.5277 23.3609 38.3527 23.5373C37.985 23.9037 37.3861 23.9037 37.0225 23.5414C36.6574 23.1736 36.6574 22.5762 37.0225 22.2084ZM42.967 28.1557C42.375 28.7477 42.0496 29.5338 42.051 30.3691C42.0523 31.2031 42.3777 31.9865 42.967 32.573C43.5576 33.1637 44.3424 33.4891 45.1777 33.4891C46.0131 33.4891 46.7979 33.1637 47.3885 32.573C48.6039 31.3576 48.6039 29.3779 47.3885 28.1557C46.7979 27.565 46.0131 27.2396 45.1777 27.2396C44.3424 27.2396 43.5576 27.565 42.967 28.1557ZM45.8436 31.0281C45.6658 31.2059 45.4293 31.3043 45.1791 31.3043C44.9289 31.3043 44.6924 31.2059 44.5119 31.0268C44.3356 30.8518 44.2385 30.618 44.2385 30.3678C44.2385 30.1162 44.3355 29.8797 44.5147 29.702C44.6924 29.5242 44.9289 29.4258 45.1791 29.4258C45.4293 29.4258 45.6658 29.5242 45.8422 29.6992C46.2072 30.067 46.2072 30.6631 45.8436 31.0281ZM68.8574 52.9742C68.3037 51.3254 66.3582 49.8926 62.5602 50.8182L49.077 54.098C48.541 53.5402 47.7877 53.0713 46.7828 52.776L29.8119 47.7926C26.6236 46.8547 23.6309 46.7631 20.3934 47.5041L16.0088 48.5049V46.9682C16.0088 45.6256 14.9164 44.5346 13.5752 44.5346H3.40059C2.05664 44.5346 0.962891 45.627 0.962891 46.9682V66.4861C0.962891 67.8287 2.05664 68.9197 3.40059 68.9197H13.5766C14.9191 68.9197 16.0102 67.8273 16.0102 66.4861V65.0383L30.4121 69.2178C32.2072 69.74 33.9654 70.0012 35.7045 70.0012C38.1723 70.0012 40.6004 69.4748 43.0381 68.4193L65.7799 58.5674C68.2066 57.516 69.5574 55.0592 68.8574 52.9742ZM13.8254 66.4861C13.8254 66.6201 13.7119 66.7336 13.5779 66.7336H3.40059C3.26387 66.7336 3.14902 66.6201 3.14902 66.4861V46.9695C3.14902 46.8355 3.26387 46.7221 3.40059 46.7221H13.5766C13.7092 46.7221 13.824 46.8383 13.824 46.9695V66.4861H13.8254ZM64.9117 56.5617L42.1699 66.4137C38.5018 68.0023 34.8555 68.2334 31.0219 67.1191L16.0102 62.7633V50.7484L20.8814 49.6369C23.7785 48.9738 26.342 49.0518 29.1967 49.8912L46.1676 54.8746C46.9523 55.1057 47.435 55.4598 47.7002 55.8494C47.7152 55.8781 47.733 55.9055 47.7508 55.9328C47.9709 56.3047 48.0037 56.7012 47.9148 57.0525C47.6824 57.9672 46.6215 58.7752 44.84 58.3896L27.7064 54.6736C27.1172 54.5451 26.5348 54.9197 26.4063 55.5103C26.2777 56.0996 26.6523 56.682 27.243 56.8105L44.3766 60.5266C44.8482 60.6291 45.2953 60.6756 45.7191 60.6756C48.0406 60.6756 49.6102 59.2496 50.0326 57.5926C50.1529 57.1209 50.1775 56.6109 50.0941 56.1023L63.0783 52.9441C65.0525 52.4629 66.4731 52.7418 66.7861 53.6728C67.0801 54.5465 66.3965 55.9178 64.9117 56.5617Z" fill="#0F9135"/>
</g>
<defs>
<clipPath id="clip0_488_2494">
<rect width="70" height="70" fill="white"/>
</clipPath>
</defs>
</svg>
