<svg width="70" height="70" viewBox="0 0 70 70" fill="none" xmlns="http://www.w3.org/2000/svg">
<path fill-rule="evenodd" clip-rule="evenodd" d="M19.4989 36.0167H4.47413C3.9128 36.0167 3.45771 35.5616 3.45771 35.0003C3.45771 17.5799 17.5802 3.45752 35.0005 3.45752C46.9438 3.45752 57.7057 10.1666 63.0698 20.6073C65.9166 20.0876 68.542 22.2705 68.542 25.1661C68.542 27.7254 66.4669 29.8005 63.9076 29.8005C61.3483 29.8005 59.2732 27.7254 59.2732 25.1661C59.2732 23.6329 60.0198 22.2547 61.2022 21.403C56.1598 11.7066 46.1363 5.49035 35.0005 5.49035C19.0676 5.49035 6.04489 18.1304 5.50827 33.9839H19.4989V30.7857C17.2417 31.9718 14.4779 30.3566 14.4779 27.7549C14.4779 26.8775 14.8115 25.9993 15.4787 25.3322L29.8514 10.9595C32.6368 8.17406 37.1923 8.16709 39.9863 10.9537L54.404 25.3341L54.406 25.3322C56.5432 27.4695 55.0454 31.1783 51.9832 31.1783C51.4337 31.1783 50.8839 31.0474 50.3858 30.7857V33.9837H65.527C66.0883 33.9837 66.5434 34.4388 66.5434 35.0001C66.5434 52.4205 52.4209 66.5429 35.0006 66.5429C23.0574 66.5429 12.2954 59.8338 6.93128 49.3931C4.08435 49.9129 1.45898 47.7301 1.45898 44.8347C1.45898 42.2755 3.53394 40.2002 6.09339 40.2002C8.65268 40.2002 10.7278 42.2754 10.7278 44.8347C10.7278 46.3677 9.98113 47.7461 8.79877 48.5977C13.8411 58.294 23.8645 64.5102 35.0005 64.5102C50.9333 64.5102 63.9561 51.8701 64.4927 36.0167H50.3855V46.4319C50.3855 48.3934 48.7881 49.9907 46.8268 49.9907H45.815C45.707 51.9983 45.1198 53.961 44.0185 55.6435C40.2288 61.4335 29.6506 61.4335 25.8609 55.6435C24.7597 53.961 24.1724 51.9983 24.0644 49.9907H23.4074C21.2534 49.9907 19.4988 48.2361 19.4988 46.082V36.0167H19.4989ZM35.9525 53.6231C36.3338 53.5509 36.6526 53.4585 37.0188 53.3038L37.0185 53.3033C38.1161 52.8447 38.8882 51.9929 38.9719 50.8281H38.9713C38.9741 50.7851 38.9746 50.7414 38.9719 50.6972C38.9014 49.5374 38.0964 48.6548 37.0148 48.2056C35.5826 47.6108 34.7113 47.9816 33.692 47.5537L33.6917 47.5546C32.7365 47.1018 32.7737 46.5765 33.6842 46.1995L33.6837 46.1984C34.8598 45.7097 36.4746 46.0279 37.5117 46.5182C38.0182 46.7572 38.6227 46.5403 38.8617 46.0338C39.1007 45.5274 38.8838 44.9229 38.3774 44.6839C37.624 44.3271 36.8254 44.1034 35.9564 43.9959V43.7472C35.9564 43.1858 35.5013 42.7308 34.94 42.7308C34.3787 42.7308 33.9236 43.1858 33.9236 43.7472V44.0186C33.5722 44.0862 33.2497 44.1824 32.9145 44.3265L32.914 44.3256C30.3262 45.3972 30.2724 48.2726 32.9067 49.4262L32.906 49.4278C34.2823 50.0057 35.2175 49.6642 36.2366 50.0798C36.5268 50.1981 36.9384 50.4905 36.9395 50.7508C36.9407 51.0406 36.5358 51.3058 36.2328 51.4384L36.2327 51.4379C35.064 51.9312 33.438 51.6054 32.3372 51.1074C31.8264 50.8772 31.2255 51.1047 30.9953 51.6155C30.7651 52.1264 30.9926 52.7273 31.5034 52.9575C32.2896 53.3131 33.0869 53.5394 33.9277 53.6429L33.9274 53.8863C33.9274 54.4455 34.3807 54.8988 34.9399 54.8988C35.4991 54.8988 35.9523 54.4455 35.9523 53.8863L35.9525 53.6231ZM31.9668 35.0274H37.9129C38.2208 33.0814 39.5052 31.1707 40.4688 29.6956H29.411C30.3746 31.1709 31.6589 33.0814 31.9668 35.0274ZM38.0073 37.0604H31.8723C31.7868 37.3615 31.6654 37.6594 31.5025 37.9522C30.2986 40.1155 28.925 41.825 27.6527 43.797C25.6268 46.9366 25.4965 51.3787 27.5604 54.532C30.5475 59.0958 39.3321 59.0958 42.3192 54.532C44.3831 51.3787 44.2528 46.9364 42.2269 43.797C40.9544 41.825 39.5808 40.1155 38.3771 37.9522C38.2141 37.6594 38.0929 37.3615 38.0073 37.0604ZM45.7602 47.958H46.8268C47.666 47.958 48.3527 47.2713 48.3527 46.4321V28.97L35.4897 16.107C35.1893 15.8066 34.695 15.8066 34.3946 16.107L21.5317 28.9698V46.082C21.5317 47.1139 22.3757 47.9578 23.4076 47.9578H24.1192C24.3199 46.0985 24.9355 44.2658 25.9452 42.7009C27.1409 40.848 28.5825 39.0323 29.7316 36.9673C30.6545 35.309 28.9764 32.7424 27.8397 31.0034C27.2855 30.1558 26.8351 29.4669 26.7061 28.9054C26.5597 28.2671 27.0494 27.6653 27.6948 27.6647V27.6628H42.1846C42.8552 27.6628 43.3691 28.3044 43.1462 29.0092C42.9892 29.5513 42.5602 30.2075 42.0398 31.0036C40.903 32.7424 39.225 35.3091 40.1479 36.9675C41.297 39.0326 42.7387 40.8481 43.9342 42.701C44.944 44.2659 45.5595 46.0985 45.7602 47.958ZM16.5108 27.7549C16.5108 29.0124 18.0273 29.6 18.8867 28.7406L32.9573 14.6699C34.0518 13.5754 35.8326 13.5754 36.9271 14.6699L50.9976 28.7406C51.8575 29.6003 53.3737 29.0124 53.3737 27.7551C53.3737 27.397 53.2386 27.0396 52.9686 26.7696L52.9706 26.7676L38.5568 12.3911C36.5529 10.3924 33.2948 10.3906 31.2885 12.3967L16.9158 26.7694C16.6458 27.0395 16.5108 27.3968 16.5108 27.7549ZM65.7472 23.3263C64.1131 21.6922 61.306 22.8545 61.306 25.1659C61.306 27.477 64.1129 28.6399 65.7472 27.0055C66.763 25.9899 66.7631 24.3421 65.7472 23.3263ZM7.93299 42.9949C6.29873 41.3606 3.49181 42.5233 3.49181 44.8345C3.49181 47.146 6.29888 48.3082 7.93299 46.6743C8.9488 45.6585 8.9488 44.0107 7.93299 42.9949Z" fill="#0F9135"/>
</svg>
